<svg xmlns="http://www.w3.org/2000/svg" viewBox="0 0 500 500"><g id="freepik--background-complete--inject-211"><polygon points="145.69 314.72 137.26 318.97 137.51 309.65 218.46 183.27 226.64 188.34 145.69 314.72" style="fill:#f0f0f0"></polygon><polygon points="141.47 316.84 145.69 314.72 226.64 188.34 222.55 185.81 141.6 312.18 141.47 316.84" style="fill:#e0e0e0"></polygon><path d="M192.91,193.88c5.84-.35,21.16,9.62,21.16,9.62s17.17,11,17.75,18c.56,6.81-10.32,19.93-13.63,26s-8.65,18.93-11.63,25.2c-2.38,5-10.1,13.16-13.33,17.68-4,5.56-9.08,20.38-15.84,21.6-10.18,1.84-28.29-13-35.94-19.76-3.32-2.94-9.3-9.07-8.9-13.49.52-5.7,8.77-14.23,12.2-18.87,5.39-7.28,15.6-22.16,19.54-30.28,3-6.25,6.81-20.11,11.45-25.32C179.07,200.46,187.92,194.18,192.91,193.88Z" style="fill:#f0f0f0"></path><path d="M189.62,202.87c3.88-2.07,13.85.27,17,4.22s20.15,11.83,22.06,16.66-19.2-13.54-22.89-14.18S184.85,205.41,189.62,202.87Z" style="fill:#e6e6e6"></path><path d="M205.94,263.08c-3.62,2.5-13.81,1.31-17.41-2.24s-21.41-9.45-23.88-14,20.68,11.25,24.42,11.46S210.38,260,205.94,263.08Z" style="fill:#e6e6e6"></path><path d="M182.67,213.19c5.42-1.76,16,3.59,20.81,8.9s18.74,12.27,18.41,15.39-33-7.45-35.65-3.79,26.08,16.81,24.86,20.71-10.06-5.23-14.25-6.5-21.42-15.59-20.44-17.64,16.19,2.38,18.73,0S212,235.69,213.08,234s-13.76-10.84-17.21-10.66S179.11,214.35,182.67,213.19Z" style="fill:#e6e6e6"></path><path d="M185.29,293.38c-5-.12-14-7.7-18-13.56s-15.91-15.76-15.42-18.27,28.91,15.92,31.54,13.65-22.17-21.71-20.83-24.61,8.63,7.33,12.29,9.62S193,279.53,192,281s-14.27-6.75-16.7-5.48S160.57,266,159.51,267s11.57,13.11,14.66,14S188.53,293.46,185.29,293.38Z" style="fill:#e0e0e0"></path><path d="M144.64,274.85c4.35-.07,14.67,5.67,20,10.22s18.88,12.05,19.25,14.08-30.24-11.72-31.8-9.81,26.22,16.59,26,19-9.86-5.56-13.77-7.26-21.91-14.83-21.49-16,14.58,4.89,16.28,3.79,15.83,7.1,16.4,6.2S161.23,285,158.26,284.37,141.8,274.91,144.64,274.85Z" style="fill:#e6e6e6"></path><path d="M136.74,281.58c-2.15-6,13.34-26.64,18.64-32.13s14-18.82,17.65-29.82c2.72-8.07,9.92-18.55,13.56-23.56a44,44,0,0,0-10.85,8.12c-4.64,5.21-8.41,19.07-11.45,25.32-3.94,8.12-14.15,23-19.54,30.28-3.43,4.64-11.68,13.17-12.2,18.87-.4,4.42,5.58,10.55,8.9,13.49,6.93,6.13,22.41,18.85,32.84,19.85C158.44,304.37,138.88,287.56,136.74,281.58Z" style="fill:#e6e6e6"></path><path d="M299.17,246.49l17.38,59.12a12.26,12.26,0,0,0,15.22,8.31L371,302.39a12.26,12.26,0,0,0,8.31-15.22l-17.38-59.12a12.26,12.26,0,0,0-15.22-8.3l-12.1,3.55-4.52-22.81a10,10,0,1,0-19,5.59l8.55,21.63-12.1,3.56A12.26,12.26,0,0,0,299.17,246.49ZM324,201.15a3.81,3.81,0,1,1-4.72-2.58A3.8,3.8,0,0,1,324,201.15Z" style="fill:#e0e0e0"></path><path d="M302.36,245.55l17.38,59.12A12.27,12.27,0,0,0,335,313l39.19-11.53a12.26,12.26,0,0,0,8.31-15.22l-17.38-59.12a12.27,12.27,0,0,0-15.23-8.3l-12.09,3.55-4.52-22.81a10,10,0,1,0-19,5.59l8.55,21.63-12.1,3.56A12.26,12.26,0,0,0,302.36,245.55Zm24.87-45.34a3.8,3.8,0,1,1-4.73-2.58A3.8,3.8,0,0,1,327.23,200.21Z" style="fill:#f5f5f5"></path><rect x="416.78" y="398.49" width="33.12" height="0.25" style="fill:#ebebeb"></rect><rect x="322.53" y="401.21" width="8.69" height="0.25" style="fill:#ebebeb"></rect><rect x="396.59" y="389.21" width="19.19" height="0.25" style="fill:#ebebeb"></rect><rect x="52.46" y="390.89" width="43.19" height="0.25" style="fill:#ebebeb"></rect><rect x="104.56" y="390.89" width="6.33" height="0.25" style="fill:#ebebeb"></rect><rect x="131.47" y="395.11" width="93.68" height="0.25" style="fill:#ebebeb"></rect><path d="M238.4,337.8H45.3a5.71,5.71,0,0,1-5.71-5.71V60.66A5.71,5.71,0,0,1,45.3,55H238.4a5.71,5.71,0,0,1,5.71,5.71V332.09A5.71,5.71,0,0,1,238.4,337.8ZM45.3,55.2a5.47,5.47,0,0,0-5.46,5.46V332.09a5.47,5.47,0,0,0,5.46,5.46H238.4a5.47,5.47,0,0,0,5.46-5.46V60.66a5.47,5.47,0,0,0-5.46-5.46Z" style="fill:#ebebeb"></path><path d="M454.7,337.8H261.6a5.71,5.71,0,0,1-5.71-5.71V60.66A5.71,5.71,0,0,1,261.6,55H454.7a5.71,5.71,0,0,1,5.71,5.71V332.09A5.71,5.71,0,0,1,454.7,337.8ZM261.6,55.2a5.47,5.47,0,0,0-5.46,5.46V332.09a5.47,5.47,0,0,0,5.46,5.46H454.7a5.47,5.47,0,0,0,5.46-5.46V60.66a5.47,5.47,0,0,0-5.46-5.46Z" style="fill:#ebebeb"></path><rect y="382.4" width="500" height="0.25" style="fill:#ebebeb"></rect><path d="M348.94,99.28,327.51,87.07c-1.89-1.08-4.5-.07-5.82,2.24s-.86,5.08,1,6.16l21.43,12.21c1.89,1.08,4.5.07,5.82-2.25S350.83,100.36,348.94,99.28Z" style="fill:#f0f0f0"></path><path d="M348.49,107.14a5.18,5.18,0,0,0-1.19-.92L321,91.23a4,4,0,0,0,1.71,4.24l21.43,12.21A3.92,3.92,0,0,0,348.49,107.14Z" style="fill:#e6e6e6"></path><path d="M350,105.43c-1.32,2.32-3.93,3.33-5.82,2.25s-2.35-3.83-1-6.15,3.93-3.33,5.82-2.25S351.29,103.12,350,105.43Z" style="fill:#e0e0e0"></path><path d="M417.58,127.28,353.29,90.64c-5.68-3.24-13.49-.22-17.46,6.73s-2.58,15.23,3.1,18.46l64.29,36.64c5.68,3.24,13.5.22,17.46-6.73S423.26,130.51,417.58,127.28Z" style="fill:#f5f5f5"></path><path d="M416.23,150.86a15.28,15.28,0,0,0-3.55-2.78l-78.89-45c-.86,5.27,1,10.34,5.14,12.71l64.29,36.64C407.2,154.74,412.22,153.93,416.23,150.86Z" style="fill:#ebebeb"></path><ellipse cx="410.4" cy="139.88" rx="14.5" ry="11.83" transform="translate(85.66 427.18) rotate(-60.32)" style="fill:#e0e0e0"></ellipse><path d="M435.28,148.49l-21.43-12.21c-1.89-1.08-4.5-.07-5.82,2.25s-.86,5.07,1,6.15l21.43,12.21c1.89,1.08,4.5.08,5.82-2.24S437.18,149.57,435.28,148.49Z" style="fill:#f5f5f5"></path><path d="M434.83,156.36a4.71,4.71,0,0,0-1.18-.93l-26.3-15a4,4,0,0,0,1.72,4.24l21.43,12.21A3.92,3.92,0,0,0,434.83,156.36Z" style="fill:#ebebeb"></path><path d="M436.32,154.65c-1.32,2.32-3.93,3.32-5.82,2.24s-2.36-3.83-1-6.15,3.93-3.32,5.82-2.25S437.64,152.33,436.32,154.65Z" style="fill:#e0e0e0"></path><path d="M66.6,140.84s2.63-17.48,18.49-23.23L130,101.3l6.58,18.14Z" style="fill:#f5f5f5"></path><path d="M82.83,128.69a35,35,0,0,0-16.21,12,.77.77,0,0,0,0,.15l70-21.4-3.29-9.07Z" style="fill:#e6e6e6"></path><path d="M170,89.58c-7.64-.54-25.91,8-33.38,11.66a7.68,7.68,0,0,1-6.62.06h0l6.58,18.14.07-1.28a7.66,7.66,0,0,1,6-7c8.95-2,26-6.3,31.23-11C179.51,95.15,172.84,89.78,170,89.58Zm.47,7.81a1.87,1.87,0,1,1-1.28-3.52,1.87,1.87,0,0,1,1.28,3.52Z" style="fill:#e0e0e0"></path><path d="M77.54,167.79l35.3-57.06a5.1,5.1,0,0,0-8.68-5.37l-35.3,57.06,33.64-59.08a7.58,7.58,0,1,1,12.89,8Z" style="fill:#e0e0e0"></path><rect x="112.51" y="93.45" width="3.75" height="10.14" transform="translate(68.94 -45.44) rotate(31.74)" style="fill:#e0e0e0"></rect><path d="M124.94,62.27h.73a2.91,2.91,0,0,1,2.91,2.91V97.46a2,2,0,0,1-2,2h-2.5a2,2,0,0,1-2-2V65.18a2.91,2.91,0,0,1,2.91-2.91Z" transform="matrix(0.85, 0.53, -0.53, 0.85, 61.3, -53.83)" style="fill:#f0f0f0"></path></g><g id="freepik--Shadow--inject-211"><ellipse id="freepik--path--inject-211" cx="250" cy="415.69" rx="193.89" ry="11.32" style="fill:#f5f5f5"></ellipse></g><g id="freepik--shawarma-2--inject-211"><path d="M135.22,331.74l139.16-64.12c27.57-12.69,55.59-7.76,62.59,11s-9.66,44.3-37.23,57L160.58,399.75C133,412.45,105,407.52,98,388.74S107.65,344.44,135.22,331.74Z" style="fill:#0969DA"></path><path d="M135.22,331.74l139.16-64.12c27.57-12.69,55.59-7.76,62.59,11s-9.66,44.3-37.23,57L160.58,399.75C133,412.45,105,407.52,98,388.74S107.65,344.44,135.22,331.74Z" style="fill:#fff;opacity:0.6000000000000001"></path><path d="M124.84,397.4c12-5.53,25.93-4.9,38.25-10.58S179.42,373,196.79,365s31.92-7.72,44.3-14.2.47-18.81.47-18.81l30.16-32.08,39-5.62,21.39,13.85c-6.65,10.79-18,20.86-32.36,27.47L160.58,399.75c-26.92,12.4-54.26,8-62.05-9.72C102.84,399.54,113.34,402.7,124.84,397.4Z" style="opacity:0.2"></path><ellipse cx="287.06" cy="301.63" rx="55.07" ry="36.11" transform="translate(-108 170.06) rotate(-28)" style="fill:#0969DA"></ellipse><ellipse cx="287.06" cy="301.63" rx="55.07" ry="36.11" transform="translate(-108 170.06) rotate(-28)" style="fill:#fff;opacity:0.2"></ellipse><path d="M247.53,319c3.54,8.94,12.51,12.77,21.21,13.55,11.17,1,22.76-2.38,32.78-8.1,14.52-8.29,36.08-32.33,19.27-48.51-7.06-6.79-17.77-8.06-27.1-7A66.07,66.07,0,0,0,261,282.32c-8,6.19-15.69,14.88-18.19,25.29-2.17,9.06.87,17.69,7.86,22.82,7.93,5.81,18.64,6.56,28.15,5.21a70.29,70.29,0,0,0,32.85-14.2c13.83-10.78,28.93-34.4,12.36-49-15.95-14.1-42.71-6.93-59.5,3.41-14.72,9.07-34.52,30.16-25,49.41,9.36,18.85,36.22,16.65,52.73,10.71,18.33-6.6,40.52-22.41,43.77-44.49a26.41,26.41,0,0,0-1.17-12.72c-.57-1.6,1.79-2.7,2.36-1.09,7.63,21.52-11.83,42.88-28.18,53.07-18.53,11.54-47.55,19.06-65.35,4A26.09,26.09,0,0,1,235,310.78c1.54-10.67,8.09-20.13,15.5-27.35,17.12-16.66,45.66-27.45,67.36-18,7.9,3.42,14.37,10.18,15.72,19.49,1.48,10.21-3.49,20.55-9.75,28.27-15.39,19-43.53,30.9-65.95,23.84-8.42-2.65-15.94-8.88-17.89-18.39-2.05-10,2.72-20.38,8.88-28.06,14.91-18.6,43.52-30.69,65.1-22.08,8,3.19,14.55,10.13,15.21,19.63.73,10.35-5.16,20.21-12,27.36a66,66,0,0,1-33.89,18.77c-10.07,2.11-21.49,1.81-30.14-4.09a21.69,21.69,0,0,1-8-10.08c-.62-1.58,1.74-2.67,2.37-1.09Z" style="fill:#0969DA"></path><g style="opacity:0.4"><path d="M247.53,319c3.54,8.94,12.51,12.77,21.21,13.55,11.17,1,22.76-2.38,32.78-8.1,14.52-8.29,36.08-32.33,19.27-48.51-7.06-6.79-17.77-8.06-27.1-7A66.07,66.07,0,0,0,261,282.32c-8,6.19-15.69,14.88-18.19,25.29-2.17,9.06.87,17.69,7.86,22.82,7.93,5.81,18.64,6.56,28.15,5.21a70.29,70.29,0,0,0,32.85-14.2c13.83-10.78,28.93-34.4,12.36-49-15.95-14.1-42.71-6.93-59.5,3.41-14.72,9.07-34.52,30.16-25,49.41,9.36,18.85,36.22,16.65,52.73,10.71,18.33-6.6,40.52-22.41,43.77-44.49a26.41,26.41,0,0,0-1.17-12.72c-.57-1.6,1.79-2.7,2.36-1.09,7.63,21.52-11.83,42.88-28.18,53.07-18.53,11.54-47.55,19.06-65.35,4A26.09,26.09,0,0,1,235,310.78c1.54-10.67,8.09-20.13,15.5-27.35,17.12-16.66,45.66-27.45,67.36-18,7.9,3.42,14.37,10.18,15.72,19.49,1.48,10.21-3.49,20.55-9.75,28.27-15.39,19-43.53,30.9-65.95,23.84-8.42-2.65-15.94-8.88-17.89-18.39-2.05-10,2.72-20.38,8.88-28.06,14.91-18.6,43.52-30.69,65.1-22.08,8,3.19,14.55,10.13,15.21,19.63.73,10.35-5.16,20.21-12,27.36a66,66,0,0,1-33.89,18.77c-10.07,2.11-21.49,1.81-30.14-4.09a21.69,21.69,0,0,1-8-10.08c-.62-1.58,1.74-2.67,2.37-1.09Z" style="fill:#fff"></path></g><path d="M237.06,345.13c1,1.11,3.38,1.82,4.46.69s.46-3.66-.56-4.76-2.37-.72-3.44.4S236.05,344,237.06,345.13Z" style="opacity:0.1"></path><path d="M174.59,371c-.81.84-1.39,2.76-.63,3.59s2.57.26,3.38-.59a1.91,1.91,0,0,0-.18-2.75C176.4,370.45,175.4,370.18,174.59,371Z" style="opacity:0.1"></path><path d="M121.08,386c-.71.74-1.21,2.42-.55,3.15s2.25.22,3-.52a1.68,1.68,0,0,0-.15-2.41A1.45,1.45,0,0,0,121.08,386Z" style="opacity:0.1"></path><path d="M144.05,382.07c-1.2,1.26-2,4.23-.71,5.6s4,.62,5.26-.65.77-3-.49-4.34S145.26,380.81,144.05,382.07Z" style="opacity:0.1"></path><path d="M217.91,345.52c2.34,2.55,7.82,4.2,10.31,1.59s1.06-8.47-1.28-11-5.48-1.66-8,.94S215.57,343,217.91,345.52Z" style="fill:#0969DA"></path><path d="M157.54,381.19c1.33,1.45,4.14,2.68,5.2,1.57s0-4.13-1.36-5.57a2.45,2.45,0,0,0-3.88-.14A2.84,2.84,0,0,0,157.54,381.19Z" style="fill:#0969DA"></path><path d="M115,394.62c-.71.74-1.21,2.42-.55,3.15s2.25.22,3-.52a1.68,1.68,0,0,0-.15-2.41A1.45,1.45,0,0,0,115,394.62Z" style="fill:#0969DA"></path><path d="M106.48,384.68c-1.64,1.7-2.67,5.71-1,7.57s5.48.83,7.11-.87,1-4-.66-5.87S108.11,383,106.48,384.68Z" style="fill:#0969DA"></path><g style="opacity:0.4"><path d="M217.91,345.52c2.34,2.55,7.82,4.2,10.31,1.59s1.06-8.47-1.28-11-5.48-1.66-8,.94S215.57,343,217.91,345.52Z" style="fill:#fff"></path><path d="M157.54,381.19c1.33,1.45,4.14,2.68,5.2,1.57s0-4.13-1.36-5.57a2.45,2.45,0,0,0-3.88-.14A2.84,2.84,0,0,0,157.54,381.19Z" style="fill:#fff"></path><path d="M115,394.62c-.71.74-1.21,2.42-.55,3.15s2.25.22,3-.52a1.68,1.68,0,0,0-.15-2.41A1.45,1.45,0,0,0,115,394.62Z" style="fill:#fff"></path><path d="M106.48,384.68c-1.64,1.7-2.67,5.71-1,7.57s5.48.83,7.11-.87,1-4-.66-5.87S108.11,383,106.48,384.68Z" style="fill:#fff"></path></g><path d="M134.76,333.11h0c.6-.28,1.07.53.58,1-8.39,8.11-14,17.5-15.54,26.5a1.45,1.45,0,0,1-1.52,1.21h0a1.37,1.37,0,0,1-1.14-1.66c1.23-7,4.67-14.14,9.83-20.81A21.06,21.06,0,0,1,134.76,333.11Z" style="fill:#0969DA"></path><path d="M154.47,324h0a.59.59,0,0,1,.59,1c-7,6.8-12.13,14.54-14.52,22.17a1.38,1.38,0,0,1-1.65,1h0a1.4,1.4,0,0,1-.9-1.82,52.32,52.32,0,0,1,8.67-16.05A21.14,21.14,0,0,1,154.47,324Z" style="fill:#0969DA"></path><path d="M174.07,315l.09,0c.61-.28,1.08.53.59,1-6.6,6.39-11.54,13.64-14.08,20.82a1.37,1.37,0,0,1-1.69.9h0a1.42,1.42,0,0,1-.82-1.86,52.66,52.66,0,0,1,8.19-14.65A21,21,0,0,1,174.07,315Z" style="fill:#0969DA"></path><path d="M193.77,305.93l0,0c.6-.28,1.08.54.59,1-8.28,8-13.77,17.12-15.47,26a1.42,1.42,0,0,1-1.53,1.18h0a1.38,1.38,0,0,1-1.12-1.69A48.76,48.76,0,0,1,186,312.13,21,21,0,0,1,193.77,305.93Z" style="fill:#0969DA"></path><path d="M213.42,296.87l.07,0c.6-.28,1.07.54.59,1-8.22,8-13.78,17.22-15.48,26a1.43,1.43,0,0,1-1.54,1.18h0a1.38,1.38,0,0,1-1.11-1.69,48.53,48.53,0,0,1,9.73-20.27A21,21,0,0,1,213.42,296.87Z" style="fill:#0969DA"></path><path d="M233.1,287.81l.06,0a.59.59,0,0,1,.59,1c-8.22,8-13.78,17.23-15.48,26a1.43,1.43,0,0,1-1.53,1.18h0a1.38,1.38,0,0,1-1.11-1.69A48.53,48.53,0,0,1,225.36,294,21,21,0,0,1,233.1,287.81Z" style="fill:#0969DA"></path><g style="opacity:0.4"><path d="M134.76,333.11h0c.6-.28,1.07.53.58,1-8.39,8.11-14,17.5-15.54,26.5a1.45,1.45,0,0,1-1.52,1.21h0a1.37,1.37,0,0,1-1.14-1.66c1.23-7,4.67-14.14,9.83-20.81A21.06,21.06,0,0,1,134.76,333.11Z" style="fill:#fff"></path><path d="M154.47,324h0a.59.59,0,0,1,.59,1c-7,6.8-12.13,14.54-14.52,22.17a1.38,1.38,0,0,1-1.65,1h0a1.4,1.4,0,0,1-.9-1.82,52.32,52.32,0,0,1,8.67-16.05A21.14,21.14,0,0,1,154.47,324Z" style="fill:#fff"></path><path d="M174.07,315l.09,0c.61-.28,1.08.53.59,1-6.6,6.39-11.54,13.64-14.08,20.82a1.37,1.37,0,0,1-1.69.9h0a1.42,1.42,0,0,1-.82-1.86,52.66,52.66,0,0,1,8.19-14.65A21,21,0,0,1,174.07,315Z" style="fill:#fff"></path><path d="M193.77,305.93l0,0c.6-.28,1.08.54.59,1-8.28,8-13.77,17.12-15.47,26a1.42,1.42,0,0,1-1.53,1.18h0a1.38,1.38,0,0,1-1.12-1.69A48.76,48.76,0,0,1,186,312.13,21,21,0,0,1,193.77,305.93Z" style="fill:#fff"></path><path d="M213.42,296.87l.07,0c.6-.28,1.07.54.59,1-8.22,8-13.78,17.22-15.48,26a1.43,1.43,0,0,1-1.54,1.18h0a1.38,1.38,0,0,1-1.11-1.69,48.53,48.53,0,0,1,9.73-20.27A21,21,0,0,1,213.42,296.87Z" style="fill:#fff"></path><path d="M233.1,287.81l.06,0a.59.59,0,0,1,.59,1c-8.22,8-13.78,17.23-15.48,26a1.43,1.43,0,0,1-1.53,1.18h0a1.38,1.38,0,0,1-1.11-1.69A48.53,48.53,0,0,1,225.36,294,21,21,0,0,1,233.1,287.81Z" style="fill:#fff"></path></g><path d="M257.1,302.42l1.84-2.55a5.71,5.71,0,0,0-.85-7.73l-2.32-1.85a5.06,5.06,0,0,0-7.29,1.23l-1.84,2.55a5.7,5.7,0,0,0,.85,7.73l2.32,1.85A5,5,0,0,0,257.1,302.42Z" style="fill:#0969DA"></path><path d="M259.52,299.06l1.84-2.55a5.7,5.7,0,0,0-.85-7.73l-2.32-1.85a5,5,0,0,0-7.29,1.23l-1.84,2.55a5.72,5.72,0,0,0,.85,7.73l2.32,1.85A5.06,5.06,0,0,0,259.52,299.06Z" style="fill:#0969DA"></path><path d="M259.52,299.06l1.84-2.55a5.7,5.7,0,0,0-.85-7.73l-2.32-1.85a5,5,0,0,0-7.29,1.23l-1.84,2.55a5.72,5.72,0,0,0,.85,7.73l2.32,1.85A5.06,5.06,0,0,0,259.52,299.06Z" style="fill:#fff;opacity:0.30000000000000004"></path><path d="M310.6,311.18h0c1.68-.77,2.08-2.41.9-3.66l-2.7-2.85a4.8,4.8,0,0,0-5.16-.86h0c-1.67.77-2.07,2.41-.89,3.65l2.69,2.86A4.81,4.81,0,0,0,310.6,311.18Z" style="fill:#0969DA"></path><path d="M310.6,311.18h0c1.68-.77,2.08-2.41.9-3.66l-2.7-2.85a4.8,4.8,0,0,0-5.16-.86h0c-1.67.77-2.07,2.41-.89,3.65l2.69,2.86A4.81,4.81,0,0,0,310.6,311.18Z" style="fill:#fff;opacity:0.1"></path><path d="M312.38,310.36h0c1.67-.77,2.07-2.4.89-3.65l-2.69-2.85a4.8,4.8,0,0,0-5.17-.87h0c-1.67.77-2.07,2.41-.89,3.66l2.69,2.85A4.8,4.8,0,0,0,312.38,310.36Z" style="fill:#0969DA"></path><path d="M312.38,310.36h0c1.67-.77,2.07-2.4.89-3.65l-2.69-2.85a4.8,4.8,0,0,0-5.17-.87h0c-1.67.77-2.07,2.41-.89,3.66l2.69,2.85A4.8,4.8,0,0,0,312.38,310.36Z" style="fill:#fff;opacity:0.5"></path><path d="M318.38,291.36h0c1.67-.77,2.07-2.41.89-3.66l-2.69-2.85a4.8,4.8,0,0,0-5.17-.86h0c-1.67.77-2.07,2.4-.89,3.65l2.69,2.85A4.8,4.8,0,0,0,318.38,291.36Z" style="fill:#0969DA"></path><path d="M318.38,291.36h0c1.67-.77,2.07-2.41.89-3.66l-2.69-2.85a4.8,4.8,0,0,0-5.17-.86h0c-1.67.77-2.07,2.4-.89,3.65l2.69,2.85A4.8,4.8,0,0,0,318.38,291.36Z" style="fill:#fff;opacity:0.1"></path><path d="M320.15,290.54h0c1.67-.77,2.07-2.41.89-3.65L318.35,284a4.82,4.82,0,0,0-5.17-.86h0c-1.67.77-2.07,2.41-.89,3.66l2.69,2.85A4.8,4.8,0,0,0,320.15,290.54Z" style="fill:#0969DA"></path><path d="M320.15,290.54h0c1.67-.77,2.07-2.41.89-3.65L318.35,284a4.82,4.82,0,0,0-5.17-.86h0c-1.67.77-2.07,2.41-.89,3.66l2.69,2.85A4.8,4.8,0,0,0,320.15,290.54Z" style="fill:#fff;opacity:0.5"></path><path d="M298.63,286.81h0a2,2,0,0,0,3.05-2l.1-4.14a5.19,5.19,0,0,0-2.88-4.56h0a2,2,0,0,0-3,2l-.1,4.13A5.21,5.21,0,0,0,298.63,286.81Z" style="fill:#0969DA"></path><path d="M298.63,286.81h0a2,2,0,0,0,3.05-2l.1-4.14a5.19,5.19,0,0,0-2.88-4.56h0a2,2,0,0,0-3,2l-.1,4.13A5.21,5.21,0,0,0,298.63,286.81Z" style="fill:#fff;opacity:0.1"></path><path d="M300.36,287.56h0a2,2,0,0,0,3.05-2l.11-4.13a5.23,5.23,0,0,0-2.89-4.57h0a2,2,0,0,0-3.05,2l-.1,4.13A5.22,5.22,0,0,0,300.36,287.56Z" style="fill:#0969DA"></path><path d="M300.36,287.56h0a2,2,0,0,0,3.05-2l.11-4.13a5.23,5.23,0,0,0-2.89-4.57h0a2,2,0,0,0-3.05,2l-.1,4.13A5.22,5.22,0,0,0,300.36,287.56Z" style="fill:#fff;opacity:0.5"></path><path d="M295.41,328.63l6.22-2.86a2.52,2.52,0,0,0,.76-4.17h0a4.92,4.92,0,0,0-5.45-1.3l-6.21,2.86a2.52,2.52,0,0,0-.77,4.17h0A4.92,4.92,0,0,0,295.41,328.63Z" style="fill:#0969DA"></path><path d="M299.05,327l6.21-2.87a2.5,2.5,0,0,0,.76-4.16h0a4.91,4.91,0,0,0-5.45-1.3l-6.21,2.86a2.5,2.5,0,0,0-.76,4.16h0A4.92,4.92,0,0,0,299.05,327Z" style="fill:#0969DA"></path><path d="M299.05,327l6.21-2.87a2.5,2.5,0,0,0,.76-4.16h0a4.91,4.91,0,0,0-5.45-1.3l-6.21,2.86a2.5,2.5,0,0,0-.76,4.16h0A4.92,4.92,0,0,0,299.05,327Z" style="fill:#fff;opacity:0.1"></path><path d="M300.87,273.38h0c-.06-1.91-1.37-2.79-2.91-2l-3.52,1.88a5.84,5.84,0,0,0-2.68,4.95h0c.06,1.91,1.36,2.79,2.91,2l3.52-1.88A5.84,5.84,0,0,0,300.87,273.38Z" style="fill:#0969DA"></path><path d="M300.87,273.38h0c-.06-1.91-1.37-2.79-2.91-2l-3.52,1.88a5.84,5.84,0,0,0-2.68,4.95h0c.06,1.91,1.36,2.79,2.91,2l3.52-1.88A5.84,5.84,0,0,0,300.87,273.38Z" style="fill:#fff;opacity:0.1"></path><path d="M300.8,271.36h0c-.06-1.91-1.36-2.79-2.9-2l-3.53,1.88a5.82,5.82,0,0,0-2.68,4.94h0c.07,1.91,1.37,2.79,2.91,2l3.52-1.88A5.8,5.8,0,0,0,300.8,271.36Z" style="fill:#0969DA"></path><path d="M300.8,271.36h0c-.06-1.91-1.36-2.79-2.9-2l-3.53,1.88a5.82,5.82,0,0,0-2.68,4.94h0c.07,1.91,1.37,2.79,2.91,2l3.52-1.88A5.8,5.8,0,0,0,300.8,271.36Z" style="fill:#fff;opacity:0.5"></path><path d="M298.38,268.83l-.14,2.59a15.48,15.48,0,0,1,15.91,16.65l2.55-.05C317.27,277.2,309.05,268.59,298.38,268.83Z" style="fill:#0969DA"></path><path d="M297,268.86l-.14,2.59a15.49,15.49,0,0,1,15.91,16.66l2.55-.06C315.91,277.23,307.69,268.62,297,268.86Z" style="fill:#0969DA"></path><g style="opacity:0.6000000000000001"><path d="M297,268.86l-.14,2.59a15.49,15.49,0,0,1,15.91,16.66l2.55-.06C315.91,277.23,307.69,268.62,297,268.86Z" style="fill:#fff"></path></g><path d="M313.58,310.44c-1.61-1.59-6.24-3.25-8.46-2.83-3,.58-6.76,5.63-9.74,6.3-1.19.27-3.63,0-4.79.4-1.48.54-3.37,3.66-4,5.19-.82,2-2.37,7.21-.95,8.71,1.14,1.22,5,.2,6.59-.19,2.39-.57,6.72-3.36,9.05-4.17,2.55-.88,8.16-.93,10.43-2.48,1.35-.92,3.57-3.77,3.9-5.41C315.94,314.47,314.59,311.44,313.58,310.44Z" style="fill:#0969DA"></path><path d="M313.58,310.44c-1.61-1.59-6.24-3.25-8.46-2.83-3,.58-6.76,5.63-9.74,6.3-1.19.27-3.63,0-4.79.4-1.48.54-3.37,3.66-4,5.19-.82,2-2.37,7.21-.95,8.71,1.14,1.22,5,.2,6.59-.19,2.39-.57,6.72-3.36,9.05-4.17,2.55-.88,8.16-.93,10.43-2.48,1.35-.92,3.57-3.77,3.9-5.41C315.94,314.47,314.59,311.44,313.58,310.44Z" style="opacity:0.2"></path><path d="M313.72,308.82c-1.61-1.59-6.24-3.25-8.46-2.82-3,.58-6.76,5.62-9.74,6.3-1.2.27-3.63,0-4.79.39-1.48.55-3.37,3.66-4,5.2-.81,2-2.37,7.2-.94,8.71,1.14,1.21,5,.19,6.59-.19,2.39-.57,6.71-3.37,9.05-4.17,2.55-.89,8.16-.93,10.43-2.48,1.35-.92,3.57-3.77,3.9-5.42C316.08,312.86,314.73,309.83,313.72,308.82Z" style="fill:#0969DA"></path><path d="M313.72,308.82c-1.61-1.59-6.24-3.25-8.46-2.82-3,.58-6.76,5.62-9.74,6.3-1.2.27-3.63,0-4.79.39-1.48.55-3.37,3.66-4,5.2-.81,2-2.37,7.2-.94,8.71,1.14,1.21,5,.19,6.59-.19,2.39-.57,6.71-3.37,9.05-4.17,2.55-.89,8.16-.93,10.43-2.48,1.35-.92,3.57-3.77,3.9-5.42C316.08,312.86,314.73,309.83,313.72,308.82Z" style="fill:#fff;opacity:0.30000000000000004"></path><path d="M286.45,320.73c.65-1.41,2.63-4.32,4.1-4.87,1.16-.44,3.54-.28,4.72-.57,3-.74,6.84-5.47,9.81-6.13,2.2-.48,6.69.82,8.22,2.19a7.24,7.24,0,0,1,1.88,4.45,13.19,13.19,0,0,1-3.31,4c-2.27,1.55-7.88,1.59-10.43,2.48-2.34.8-6.66,3.6-9.05,4.17-1.62.38-5.45,1.4-6.59.19a3.58,3.58,0,0,1-.56-2.62A24.93,24.93,0,0,1,286.45,320.73Z" style="opacity:0.2"></path><path d="M318.44,285.11c-1.92-1.15-6.82-1.65-8.91-.7-2.83,1.28-5.46,7-8.26,8.41-1.11.55-3.57.85-4.62,1.54-1.34.87-2.55,4.34-2.83,6-.37,2.16-.81,7.52.91,8.63,1.38.89,4.93-1,6.44-1.77,2.24-1.12,5.9-4.86,8-6.2,2.32-1.46,7.83-2.85,9.74-4.89,1.13-1.21,2.71-4.49,2.69-6.17C321.62,288.43,319.65,285.83,318.44,285.11Z" style="fill:#0969DA"></path><path d="M318.44,285.11c-1.92-1.15-6.82-1.65-8.91-.7-2.83,1.28-5.46,7-8.26,8.41-1.11.55-3.57.85-4.62,1.54-1.34.87-2.55,4.34-2.83,6-.37,2.16-.81,7.52.91,8.63,1.38.89,4.93-1,6.44-1.77,2.24-1.12,5.9-4.86,8-6.2,2.32-1.46,7.83-2.85,9.74-4.89,1.13-1.21,2.71-4.49,2.69-6.17C321.62,288.43,319.65,285.83,318.44,285.11Z" style="opacity:0.2"></path><path d="M318.24,283.51c-1.92-1.15-6.82-1.64-8.92-.69-2.83,1.27-5.46,7.05-8.25,8.41-1.12.55-3.58.85-4.63,1.53-1.34.88-2.54,4.35-2.82,6-.37,2.16-.81,7.51.91,8.63,1.38.89,4.93-1,6.44-1.77,2.23-1.12,5.9-4.86,8-6.2,2.32-1.46,7.82-2.85,9.73-4.89,1.13-1.21,2.71-4.5,2.7-6.17C321.41,286.84,319.45,284.24,318.24,283.51Z" style="fill:#0969DA"></path><path d="M318.24,283.51c-1.92-1.15-6.82-1.64-8.92-.69-2.83,1.27-5.46,7.05-8.25,8.41-1.12.55-3.58.85-4.63,1.53-1.34.88-2.54,4.35-2.82,6-.37,2.16-.81,7.51.91,8.63,1.38.89,4.93-1,6.44-1.77,2.23-1.12,5.9-4.86,8-6.2,2.32-1.46,7.82-2.85,9.73-4.89,1.13-1.21,2.71-4.5,2.7-6.17C321.41,286.84,319.45,284.24,318.24,283.51Z" style="fill:#fff;opacity:0.30000000000000004"></path><path d="M293.93,301.55c.34-1.52,1.67-4.8,3-5.69,1.05-.7,3.43-1.11,4.53-1.68,2.76-1.43,5.57-6.92,8.36-8.27,2.06-1,6.75-.82,8.54.14a6.92,6.92,0,0,1,2.79,3.85,13.58,13.58,0,0,1-2.42,4.61c-1.91,2-7.41,3.43-9.73,4.89-2.13,1.34-5.8,5.08-8,6.2-1.51.76-5.06,2.66-6.44,1.77a3.46,3.46,0,0,1-1.1-2.4A22.83,22.83,0,0,1,293.93,301.55Z" style="opacity:0.2"></path><path d="M250.74,322.32c1.06-2.15,4.94-5.59,7.15-6.09,3-.68,7.95,2.54,10.95,1.95,1.2-.23,3.41-1.5,4.62-1.57,1.54-.09,4.21,2.07,5.22,3.26,1.35,1.59,4.28,5.81,3.37,7.81-.73,1.6-4.62,2.2-6.26,2.5-2.41.44-7.27-.43-9.7-.24-2.64.21-7.93,2.45-10.51,1.92-1.52-.32-4.42-2.1-5.21-3.51S250.07,323.68,250.74,322.32Z" style="fill:#0969DA"></path><path d="M250.74,322.32c1.06-2.15,4.94-5.59,7.15-6.09,3-.68,7.95,2.54,10.95,1.95,1.2-.23,3.41-1.5,4.62-1.57,1.54-.09,4.21,2.07,5.22,3.26,1.35,1.59,4.28,5.81,3.37,7.81-.73,1.6-4.62,2.2-6.26,2.5-2.41.44-7.27-.43-9.7-.24-2.64.21-7.93,2.45-10.51,1.92-1.52-.32-4.42-2.1-5.21-3.51S250.07,323.68,250.74,322.32Z" style="opacity:0.2"></path><path d="M250.15,320.86c1.06-2.15,4.94-5.59,7.15-6.1,3-.67,7.95,2.54,10.95,2,1.2-.23,3.41-1.5,4.62-1.57,1.54-.09,4.21,2.07,5.22,3.26,1.35,1.59,4.28,5.81,3.37,7.81-.73,1.6-4.62,2.2-6.25,2.5-2.41.44-7.28-.43-9.71-.24-2.64.21-7.93,2.45-10.51,1.91-1.52-.31-4.42-2.09-5.21-3.5S249.48,322.22,250.15,320.86Z" style="fill:#0969DA"></path><path d="M250.15,320.86c1.06-2.15,4.94-5.59,7.15-6.1,3-.67,7.95,2.54,10.95,2,1.2-.23,3.41-1.5,4.62-1.57,1.54-.09,4.21,2.07,5.22,3.26,1.35,1.59,4.28,5.81,3.37,7.81-.73,1.6-4.62,2.2-6.25,2.5-2.41.44-7.28-.43-9.71-.24-2.64.21-7.93,2.45-10.51,1.91-1.52-.31-4.42-2.09-5.21-3.5S249.48,322.22,250.15,320.86Z" style="fill:#fff;opacity:0.30000000000000004"></path><path d="M279.18,321c-1-1.06-3.7-3-5.25-2.91-1.2.06-3.4,1.18-4.6,1.39-3,.5-8-2.37-11-1.77-2.21.44-6.06,3.49-7.11,5.39a8,8,0,0,0-.5,5,11,11,0,0,0,4.23,2.37c2.58.54,7.87-1.7,10.51-1.91,2.43-.19,7.3.68,9.71.24,1.63-.3,5.52-.9,6.25-2.5a3.69,3.69,0,0,0-.23-2.7A21,21,0,0,0,279.18,321Z" style="opacity:0.2"></path><path d="M263.75,291.29c1.06-2.15,4.94-5.59,7.15-6.1,3-.67,8,2.54,11,2,1.2-.23,3.41-1.5,4.62-1.57,1.54-.09,4.21,2.07,5.22,3.26,1.34,1.59,4.28,5.81,3.37,7.81-.74,1.6-4.62,2.2-6.26,2.5-2.41.44-7.27-.43-9.7-.24-2.65.21-7.93,2.45-10.51,1.91-1.53-.31-4.42-2.09-5.21-3.5S263.08,292.65,263.75,291.29Z" style="fill:#0969DA"></path><path d="M263.75,291.29c1.06-2.15,4.94-5.59,7.15-6.1,3-.67,8,2.54,11,2,1.2-.23,3.41-1.5,4.62-1.57,1.54-.09,4.21,2.07,5.22,3.26,1.34,1.59,4.28,5.81,3.37,7.81-.74,1.6-4.62,2.2-6.26,2.5-2.41.44-7.27-.43-9.7-.24-2.65.21-7.93,2.45-10.51,1.91-1.53-.31-4.42-2.09-5.21-3.5S263.08,292.65,263.75,291.29Z" style="opacity:0.2"></path><path d="M263.16,289.83c1.06-2.15,4.94-5.6,7.15-6.1,3-.68,7.95,2.54,10.95,2,1.2-.23,3.41-1.51,4.62-1.58,1.54-.09,4.21,2.08,5.22,3.27,1.35,1.58,4.28,5.81,3.37,7.8-.73,1.61-4.62,2.21-6.26,2.5-2.41.44-7.27-.42-9.7-.23-2.64.2-7.93,2.44-10.51,1.91-1.52-.32-4.42-2.09-5.21-3.51S262.49,291.19,263.16,289.83Z" style="fill:#0969DA"></path><path d="M263.16,289.83c1.06-2.15,4.94-5.6,7.15-6.1,3-.68,7.95,2.54,10.95,2,1.2-.23,3.41-1.51,4.62-1.58,1.54-.09,4.21,2.08,5.22,3.27,1.35,1.58,4.28,5.81,3.37,7.8-.73,1.61-4.62,2.21-6.26,2.5-2.41.44-7.27-.42-9.7-.23-2.64.2-7.93,2.44-10.51,1.91-1.52-.32-4.42-2.09-5.21-3.51S262.49,291.19,263.16,289.83Z" style="fill:#fff;opacity:0.30000000000000004"></path><path d="M292.19,289.93c-1-1.06-3.71-3-5.25-2.91-1.21.06-3.4,1.18-4.6,1.38-3,.51-8-2.36-11-1.77-2.21.44-6.06,3.49-7.11,5.4a7.89,7.89,0,0,0-.5,5,11,11,0,0,0,4.23,2.37c2.58.53,7.87-1.71,10.51-1.91,2.43-.19,7.29.67,9.7.23,1.64-.29,5.53-.89,6.26-2.5a3.72,3.72,0,0,0-.23-2.69A22,22,0,0,0,292.19,289.93Z" style="opacity:0.2"></path><path d="M326,294.6l2.22-1c2.16-1,2.43-3.77.6-6.21l-1.89-2.51c-1.82-2.44-5.06-3.61-7.22-2.61l-2.22,1c-2.16,1-2.43,3.78-.6,6.22l1.89,2.51C320.62,294.42,323.85,295.59,326,294.6Z" style="fill:#0969DA"></path><path d="M326,294.6l2.22-1c2.16-1,2.43-3.77.6-6.21l-1.89-2.51c-1.82-2.44-5.06-3.61-7.22-2.61l-2.22,1c-2.16,1-2.43,3.78-.6,6.22l1.89,2.51C320.62,294.42,323.85,295.59,326,294.6Z" style="opacity:0.2"></path><path d="M328.94,293.24l2.23-1c2.16-1,2.43-3.78.6-6.21l-1.89-2.52c-1.83-2.43-5.06-3.6-7.22-2.6l-2.23,1c-2.15,1-2.42,3.78-.59,6.21l1.88,2.51C323.55,293.07,326.79,294.24,328.94,293.24Z" style="fill:#0969DA"></path><path d="M266.25,327.49l2.2-2.21a5.82,5.82,0,0,0,.39-7.82l-2-2.25a5,5,0,0,0-7.33-.09l-2.2,2.21a5.82,5.82,0,0,0-.39,7.82l2,2.26A5,5,0,0,0,266.25,327.49Z" style="fill:#0969DA"></path><path d="M269.15,324.58l2.2-2.2a5.82,5.82,0,0,0,.38-7.83l-2-2.25a5,5,0,0,0-7.34-.09l-2.19,2.21a5.82,5.82,0,0,0-.39,7.83l2,2.25A5,5,0,0,0,269.15,324.58Z" style="fill:#0969DA"></path><path d="M269.15,324.58l2.2-2.2a5.82,5.82,0,0,0,.38-7.83l-2-2.25a5,5,0,0,0-7.34-.09l-2.19,2.21a5.82,5.82,0,0,0-.39,7.83l2,2.25A5,5,0,0,0,269.15,324.58Z" style="fill:#fff;opacity:0.30000000000000004"></path><path d="M252.34,316.67l4.52-5.43a2.41,2.41,0,0,0-1-4h0a5.2,5.2,0,0,0-5.54,1.4l-4.52,5.43a2.41,2.41,0,0,0,1,4h0A5.14,5.14,0,0,0,252.34,316.67Z" style="fill:#0969DA"></path><path d="M255,313.5l4.51-5.43a2.41,2.41,0,0,0-1-4h0a5.16,5.16,0,0,0-5.54,1.4l-4.51,5.43a2.41,2.41,0,0,0,1,4h0A5.18,5.18,0,0,0,255,313.5Z" style="fill:#0969DA"></path><path d="M255,313.5l4.51-5.43a2.41,2.41,0,0,0-1-4h0a5.16,5.16,0,0,0-5.54,1.4l-4.51,5.43a2.41,2.41,0,0,0,1,4h0A5.18,5.18,0,0,0,255,313.5Z" style="fill:#fff;opacity:0.1"></path><path d="M289.19,281.82l.72-1.85c.69-1.8-.26-3.26-2.13-3.25h-1.93a5.44,5.44,0,0,0-4.64,3.28l-.71,1.86c-.7,1.8.26,3.25,2.12,3.24h1.93A5.42,5.42,0,0,0,289.19,281.82Z" style="fill:#0969DA"></path><path d="M289.19,281.82l.72-1.85c.69-1.8-.26-3.26-2.13-3.25h-1.93a5.44,5.44,0,0,0-4.64,3.28l-.71,1.86c-.7,1.8.26,3.25,2.12,3.24h1.93A5.42,5.42,0,0,0,289.19,281.82Z" style="opacity:0.2"></path><path d="M290.14,279.37l.71-1.85c.69-1.8-.26-3.26-2.13-3.25H286.8a5.42,5.42,0,0,0-4.64,3.28l-.72,1.86c-.69,1.8.26,3.25,2.13,3.24h1.93A5.45,5.45,0,0,0,290.14,279.37Z" style="fill:#0969DA"></path><path d="M278.76,276.64l-2-.19c-.95,7.85-7.69,13.66-15,13l-.27,2.16C269.9,292.38,277.66,285.68,278.76,276.64Z" style="fill:#0969DA"></path><path d="M278.9,275.49l-2-.19c-1,7.84-7.7,13.66-15,13l-.27,2.16C270,291.23,277.8,284.53,278.9,275.49Z" style="fill:#0969DA"></path><g style="opacity:0.6000000000000001"><path d="M278.9,275.49l-2-.19c-1,7.84-7.7,13.66-15,13l-.27,2.16C270,291.23,277.8,284.53,278.9,275.49Z" style="fill:#fff"></path></g><path d="M272,296.22c3.95-2.09,17.4-9.57,17.38-1s14.35,1.4,9.84,9.17-24.13,12.92-23,7.34-18.81-.25-15.65-5.33,6.68-3.59,8.41-4.91S270.11,297.2,272,296.22Z" style="fill:#0969DA"></path><g style="opacity:0.30000000000000004"><path d="M283.46,294.67a31.48,31.48,0,0,0-6.41,6.65S279.22,295.2,283.46,294.67Z" style="fill:#fff"></path><path d="M279.14,302.51a45.85,45.85,0,0,0-6.64-.73s7.83-1.55,13.8.94c1.29-.92,4.4-2.67,7.85-1.21a23.72,23.72,0,0,0-7.48,1.38,10.27,10.27,0,0,1,4.67,4,31.71,31.71,0,0,0-7.49-3.22c-3.51,4.83-3.16,7.42-3.16,7.42-2.41-3.79,3.13-7.41,3.16-7.42-1.09-.33-2.29-.65-3.59-.92-5.9,1.25-8.73,4.29-8.73,4.29C273.12,303.49,276.79,302.66,279.14,302.51Z" style="fill:#fff"></path><path d="M265.56,306.15a8.5,8.5,0,0,1,7.94-1.69C270.23,304.06,265.56,306.15,265.56,306.15Z" style="fill:#fff"></path></g><path d="M309.31,288.74c3.26-3.2,14.28-14.41,16.57-6.33s14.29-3.09,12,5.64-19.89,19.65-20.27,14-18.3,5.56-16.61-.22,5.5-5.45,6.82-7.23S307.79,290.23,309.31,288.74Z" style="fill:#0969DA"></path><g style="opacity:0.30000000000000004"><path d="M320.05,283.72a32.6,32.6,0,0,0-4.41,8.27S316.08,285.54,320.05,283.72Z" style="fill:#fff"></path><path d="M318,292.47a45,45,0,0,0-6.63,1.36s7.17-3.88,13.62-3.37c1-1.27,3.54-3.88,7.29-3.57a25,25,0,0,0-6.88,3.61,10,10,0,0,1,5.61,2.33,31.67,31.67,0,0,0-8.14-.74c-2.09,5.65-1.05,8-1.05,8-3.36-2.84,1-8,1.05-8-1.15,0-2.4.1-3.73.24-5.38,3-7.3,6.74-7.3,6.74C312.42,295.25,315.75,293.34,318,292.47Z" style="fill:#fff"></path><path d="M305.81,300.09a9,9,0,0,1,7.24-4C309.77,296.68,305.81,300.09,305.81,300.09Z" style="fill:#fff"></path></g><path d="M267.3,314.82c-4.13,1.63-18.4,6.93-12.94,12.95S245.11,340,253.24,342s25.28-9.83,20.9-12.86,13.13-15,7.67-16.07-7,2.71-9.07,3.14S269.22,314.06,267.3,314.82Z" style="fill:#0969DA"></path><g style="opacity:0.30000000000000004"><path d="M258.17,322.78a26.93,26.93,0,0,1,8.77-.34S261.51,319.82,258.17,322.78Z" style="fill:#fff"></path><path d="M266.21,324.92a55.07,55.07,0,0,1,4.23-5.73s-6.52,5.06-9.15,11.51A9,9,0,0,0,255,336a26.57,26.57,0,0,1,6.17-4.91,12.29,12.29,0,0,0-.76,6.49,39.48,39.48,0,0,1,3.24-8.17c5.55.65,7,2.76,7,2.76-.71-4.58-6.93-2.77-7-2.76.56-1.09,1.21-2.26,1.95-3.48,5-3.75,8.9-3.83,8.9-3.83C271.09,320.88,268,323.18,266.21,324.92Z" style="fill:#fff"></path><path d="M278.13,316.81c-4.52.54-6.69,5.06-6.69,5.06C273.5,319,278.13,316.81,278.13,316.81Z" style="fill:#fff"></path></g><path d="M300.88,321.15l-1.73-1c-3.86,6.88-12.12,9.37-18.42,5.54l-1.06,1.9C286.92,331.94,296.44,329.08,300.88,321.15Z" style="fill:#0969DA"></path><path d="M301.45,320.14l-1.74-1.06c-3.85,6.89-12.11,9.37-18.41,5.55l-1.07,1.89C287.49,330.93,297,328.07,301.45,320.14Z" style="fill:#0969DA"></path><g style="opacity:0.6000000000000001"><path d="M301.45,320.14l-1.74-1.06c-3.85,6.89-12.11,9.37-18.41,5.55l-1.07,1.89C287.49,330.93,297,328.07,301.45,320.14Z" style="fill:#fff"></path></g><path d="M269.75,323.57l.16-2.17c-7.36-.29-12.87-6.93-12.29-14.8l-2-.09C254.92,315.58,261.27,323.23,269.75,323.57Z" style="fill:#0969DA"></path><path d="M270.83,323.62l.16-2.17c-7.36-.3-12.87-6.94-12.29-14.81l-2-.08C256,315.62,262.35,323.27,270.83,323.62Z" style="fill:#0969DA"></path><g style="opacity:0.6000000000000001"><path d="M270.83,323.62l.16-2.17c-7.36-.3-12.87-6.94-12.29-14.81l-2-.08C256,315.62,262.35,323.27,270.83,323.62Z" style="fill:#fff"></path></g><path d="M319.73,310.57l1.11-1.64a2.26,2.26,0,0,0-1.3-3.73l-1.85-.49a5.13,5.13,0,0,0-5.2,2l-1.11,1.63a2.27,2.27,0,0,0,1.3,3.74l1.85.49A5.17,5.17,0,0,0,319.73,310.57Z" style="fill:#0969DA"></path><path d="M319.73,310.57l1.11-1.64a2.26,2.26,0,0,0-1.3-3.73l-1.85-.49a5.13,5.13,0,0,0-5.2,2l-1.11,1.63a2.27,2.27,0,0,0,1.3,3.74l1.85.49A5.17,5.17,0,0,0,319.73,310.57Z" style="opacity:0.2"></path><path d="M321.2,308.41l1.11-1.64A2.27,2.27,0,0,0,321,303l-1.85-.49a5.18,5.18,0,0,0-5.2,2l-1.11,1.64a2.27,2.27,0,0,0,1.3,3.73l1.86.49A5.15,5.15,0,0,0,321.2,308.41Z" style="fill:#0969DA"></path><path d="M322.85,293.16l-2,.19c.32,7.84-5.42,14.77-12.8,15.43l.08,2.17C316.59,310.18,323.21,302.2,322.85,293.16Z" style="fill:#0969DA"></path><path d="M322.8,292l-2,.18c.32,7.85-5.43,14.77-12.81,15.44l.09,2.16C316.55,309,323.17,301.05,322.8,292Z" style="fill:#0969DA"></path><g style="opacity:0.6000000000000001"><path d="M322.8,292l-2,.18c.32,7.85-5.43,14.77-12.81,15.44l.09,2.16C316.55,309,323.17,301.05,322.8,292Z" style="fill:#fff"></path></g><path d="M307.85,290l.72-1.86c.69-1.8-.26-3.25-2.13-3.24h-1.93a5.44,5.44,0,0,0-4.64,3.28l-.71,1.85c-.7,1.8.26,3.26,2.12,3.25h1.93A5.42,5.42,0,0,0,307.85,290Z" style="fill:#0969DA"></path><path d="M307.85,290l.72-1.86c.69-1.8-.26-3.25-2.13-3.24h-1.93a5.44,5.44,0,0,0-4.64,3.28l-.71,1.85c-.7,1.8.26,3.26,2.12,3.25h1.93A5.42,5.42,0,0,0,307.85,290Z" style="opacity:0.2"></path><path d="M308.79,287.56l.72-1.86c.69-1.8-.26-3.25-2.13-3.24h-1.92a5.42,5.42,0,0,0-4.64,3.28l-.72,1.85c-.69,1.81.26,3.26,2.13,3.25h1.92A5.42,5.42,0,0,0,308.79,287.56Z" style="fill:#0969DA"></path><path d="M331.17,280.87h0c-.06-1.91-1.36-2.79-2.9-2l-3.53,1.88a5.84,5.84,0,0,0-2.68,5h0c.07,1.91,1.37,2.79,2.91,2l3.52-1.89A5.78,5.78,0,0,0,331.17,280.87Z" style="fill:#0969DA"></path><path d="M331.17,280.87h0c-.06-1.91-1.36-2.79-2.9-2l-3.53,1.88a5.84,5.84,0,0,0-2.68,5h0c.07,1.91,1.37,2.79,2.91,2l3.52-1.89A5.78,5.78,0,0,0,331.17,280.87Z" style="fill:#fff;opacity:0.1"></path><path d="M331.11,278.84h0c-.07-1.9-1.37-2.79-2.91-2l-3.52,1.88a5.8,5.8,0,0,0-2.68,4.95h0c.06,1.91,1.36,2.79,2.9,2l3.53-1.88A5.84,5.84,0,0,0,331.11,278.84Z" style="fill:#0969DA"></path><path d="M331.11,278.84h0c-.07-1.9-1.37-2.79-2.91-2l-3.52,1.88a5.8,5.8,0,0,0-2.68,4.95h0c.06,1.91,1.36,2.79,2.9,2l3.53-1.88A5.84,5.84,0,0,0,331.11,278.84Z" style="fill:#fff;opacity:0.5"></path><path d="M276.85,301.18l-.9-2.43a15.49,15.49,0,0,1-21.22-9l-2.32,1.07C256.2,301,267.16,305.64,276.85,301.18Z" style="fill:#0969DA"></path><path d="M278.09,300.61l-.91-2.43a15.47,15.47,0,0,1-21.21-9l-2.32,1.07C257.43,300.44,268.4,305.07,278.09,300.61Z" style="fill:#0969DA"></path><g style="opacity:0.6000000000000001"><path d="M278.09,300.61l-.91-2.43a15.47,15.47,0,0,1-21.21-9l-2.32,1.07C257.43,300.44,268.4,305.07,278.09,300.61Z" style="fill:#fff"></path></g><path d="M263.63,307.16l6.21-2.87a2.51,2.51,0,0,0,.76-4.16h0a4.91,4.91,0,0,0-5.45-1.3l-6.21,2.86a2.5,2.5,0,0,0-.76,4.16h0A4.92,4.92,0,0,0,263.63,307.16Z" style="fill:#0969DA"></path><path d="M267.26,305.48l6.21-2.86a2.5,2.5,0,0,0,.76-4.16h0a4.92,4.92,0,0,0-5.45-1.31L262.57,300a2.5,2.5,0,0,0-.76,4.16h0A4.91,4.91,0,0,0,267.26,305.48Z" style="fill:#0969DA"></path><path d="M267.26,305.48l6.21-2.86a2.5,2.5,0,0,0,.76-4.16h0a4.92,4.92,0,0,0-5.45-1.31L262.57,300a2.5,2.5,0,0,0-.76,4.16h0A4.91,4.91,0,0,0,267.26,305.48Z" style="fill:#fff;opacity:0.1"></path><path d="M278.24,292.35h0a2,2,0,0,0,3.05-2l.11-4.13a5.23,5.23,0,0,0-2.89-4.57h0a2,2,0,0,0-3,2l-.11,4.13A5.24,5.24,0,0,0,278.24,292.35Z" style="fill:#0969DA"></path><path d="M278.24,292.35h0a2,2,0,0,0,3.05-2l.11-4.13a5.23,5.23,0,0,0-2.89-4.57h0a2,2,0,0,0-3,2l-.11,4.13A5.24,5.24,0,0,0,278.24,292.35Z" style="fill:#fff;opacity:0.1"></path><path d="M280,293.1h0a2,2,0,0,0,3-2l.1-4.13a5.21,5.21,0,0,0-2.88-4.57h0a2,2,0,0,0-3.05,2l-.1,4.14A5.2,5.2,0,0,0,280,293.1Z" style="fill:#0969DA"></path><path d="M280,293.1h0a2,2,0,0,0,3-2l.1-4.13a5.21,5.21,0,0,0-2.88-4.57h0a2,2,0,0,0-3.05,2l-.1,4.14A5.2,5.2,0,0,0,280,293.1Z" style="fill:#fff;opacity:0.5"></path><path d="M292,315.6h0c-.06-1.91-1.36-2.79-2.9-2l-3.53,1.88a5.85,5.85,0,0,0-2.68,4.95h0c.07,1.91,1.37,2.79,2.91,2l3.52-1.88A5.81,5.81,0,0,0,292,315.6Z" style="fill:#0969DA"></path><path d="M292,315.6h0c-.06-1.91-1.36-2.79-2.9-2l-3.53,1.88a5.85,5.85,0,0,0-2.68,4.95h0c.07,1.91,1.37,2.79,2.91,2l3.52-1.88A5.81,5.81,0,0,0,292,315.6Z" style="fill:#fff;opacity:0.1"></path><path d="M291.92,313.58h0c-.07-1.91-1.37-2.79-2.91-2l-3.52,1.88a5.81,5.81,0,0,0-2.68,4.95h0c.06,1.91,1.36,2.79,2.9,2l3.53-1.88A5.85,5.85,0,0,0,291.92,313.58Z" style="fill:#0969DA"></path><path d="M291.92,313.58h0c-.07-1.91-1.37-2.79-2.91-2l-3.52,1.88a5.81,5.81,0,0,0-2.68,4.95h0c.06,1.91,1.36,2.79,2.9,2l3.53-1.88A5.85,5.85,0,0,0,291.92,313.58Z" style="fill:#fff;opacity:0.5"></path></g><g id="freepik--shawarma-1--inject-211"><path d="M364.5,341.69H210.3c-30.54,0-55.3,16.1-55.3,36s24.76,36,55.3,36H364.5c30.54,0,55.3-16.1,55.3-36S395,341.69,364.5,341.69Z" style="fill:#0969DA"></path><path d="M364.5,341.69H210.3c-30.54,0-55.3,16.1-55.3,36s24.76,36,55.3,36H364.5c30.54,0,55.3-16.1,55.3-36S395,341.69,364.5,341.69Z" style="fill:#fff;opacity:0.5"></path><path d="M397.47,396.64c-13.31,0-26.25,6.36-39.9,6.36s-20.31-5.66-39.56-5.66-32.9,6.3-46.9,5.6-7.06-16.78-7.06-16.78l-39.83-16.41-38.86,11.14L170,402.29c10.08,7,24.39,11.33,40.27,11.33H364.5c29.82,0,54.12-15.36,55.25-34.57C419,389.42,410.21,396.64,397.47,396.64Z" style="opacity:0.1"></path><ellipse cx="210.3" cy="377.66" rx="55.3" ry="35.96" style="fill:#0969DA"></ellipse><ellipse cx="210.3" cy="377.66" rx="55.3" ry="35.96" style="fill:#fff;opacity:0.2"></ellipse><path d="M253.8,376.86c-.2,9.54-7.34,16.72-15.28,21.05-10.21,5.56-22.36,7.32-33.85,6.32-16.66-1.45-45.52-14.18-35.32-35.77,4.28-9.07,14-14.67,23.13-17.63a68,68,0,0,1,35.69-1.45c9.78,2.24,20.08,6.9,26.11,15.27a20.74,20.74,0,0,1,.61,23.85c-5.44,8.55-15.3,13.68-24.77,16.41a71.92,71.92,0,0,1-36.07.84c-16.88-4-39.48-19-29-39.11,10.11-19.36,37.94-24,57.47-21.67,17.11,2.06,43.26,12.87,41,34.22-2.21,20.9-28.38,30.09-46.09,31.59-19.66,1.66-46.21-3.37-57.07-22a24.25,24.25,0,0,1-3.38-12,1.31,1.31,0,0,0-2.62,0c.38,22.59,26.31,33.77,45.36,36.17,21.59,2.71,51.69-2.57,63.2-23.58a25.43,25.43,0,0,0-.18-25.19c-5.22-9-14.75-14.8-24.3-18.24-22.06-7.92-52.85-5.79-70.06,11.73-6.26,6.37-10,15.16-8,24.12,2.21,9.84,10.55,17.1,19.19,21.46,21.25,10.74,52,9.79,70.77-5.9,7-5.9,11.94-14.65,10.42-24-1.59-9.9-9.75-17.26-18.28-21.63-20.66-10.59-52-9.6-69.35,7.14-6.43,6.2-10.18,15.19-7.46,24,3,9.65,12,16.09,21,19.72a66.09,66.09,0,0,0,38.67,2.85c10.26-2.28,21-7.31,27.05-16.22a22.61,22.61,0,0,0,4-12.43,1.31,1.31,0,0,0-2.62,0Z" style="fill:#0969DA"></path><g style="opacity:0.4"><path d="M253.8,376.86c-.2,9.54-7.34,16.72-15.28,21.05-10.21,5.56-22.36,7.32-33.85,6.32-16.66-1.45-45.52-14.18-35.32-35.77,4.28-9.07,14-14.67,23.13-17.63a68,68,0,0,1,35.69-1.45c9.78,2.24,20.08,6.9,26.11,15.27a20.74,20.74,0,0,1,.61,23.85c-5.44,8.55-15.3,13.68-24.77,16.41a71.92,71.92,0,0,1-36.07.84c-16.88-4-39.48-19-29-39.11,10.11-19.36,37.94-24,57.47-21.67,17.11,2.06,43.26,12.87,41,34.22-2.21,20.9-28.38,30.09-46.09,31.59-19.66,1.66-46.21-3.37-57.07-22a24.25,24.25,0,0,1-3.38-12,1.31,1.31,0,0,0-2.62,0c.38,22.59,26.31,33.77,45.36,36.17,21.59,2.71,51.69-2.57,63.2-23.58a25.43,25.43,0,0,0-.18-25.19c-5.22-9-14.75-14.8-24.3-18.24-22.06-7.92-52.85-5.79-70.06,11.73-6.26,6.37-10,15.16-8,24.12,2.21,9.84,10.55,17.1,19.19,21.46,21.25,10.74,52,9.79,70.77-5.9,7-5.9,11.94-14.65,10.42-24-1.59-9.9-9.75-17.26-18.28-21.63-20.66-10.59-52-9.6-69.35,7.14-6.43,6.2-10.18,15.19-7.46,24,3,9.65,12,16.09,21,19.72a66.09,66.09,0,0,0,38.67,2.85c10.26-2.28,21-7.31,27.05-16.22a22.61,22.61,0,0,0,4-12.43,1.31,1.31,0,0,0-2.62,0Z" style="fill:#fff"></path></g><path d="M291.16,388.51c-1.31,3.28-5.9,7-9.18,5.73s-4-7.21-2.68-10.48,4.6-3.78,7.87-2.47S292.48,385.24,291.16,388.51Z" style="fill:#fff;opacity:0.30000000000000004"></path><path d="M307.7,396.06c-2.53-.4-5.93-3-5.53-5.57s4.45-4,7-3.58,3.41,2.64,3,5.17S310.22,396.47,307.7,396.06Z" style="fill:#0969DA"></path><path d="M349.6,387c-2.53-.4-5.93-3-5.53-5.57s4.45-4,7-3.58,3.41,2.64,3,5.17S352.12,387.38,349.6,387Z" style="fill:#0969DA"></path><path d="M307.7,396.06c-2.53-.4-5.93-3-5.53-5.57s4.45-4,7-3.58,3.41,2.64,3,5.17S310.22,396.47,307.7,396.06Z" style="fill:#fff;opacity:0.4"></path><path d="M349.6,387c-2.53-.4-5.93-3-5.53-5.57s4.45-4,7-3.58,3.41,2.64,3,5.17S352.12,387.38,349.6,387Z" style="fill:#fff;opacity:0.4"></path><path d="M360.82,395.61c-.74,1.85-3,4.14-4.35,3.58s-1.43-3.75-.68-5.6a2.72,2.72,0,1,1,5,2Z" style="fill:#fff;opacity:0.30000000000000004"></path><path d="M272.92,396.13c-.57,1.41-2.55,3-4,2.47s-1.72-3.11-1.16-4.53,2-1.63,3.41-1.06S273.49,394.71,272.92,396.13Z" style="opacity:0.1"></path><path d="M341.13,393.52c1.06.43,2.28,1.92,1.86,3s-2.35,1.29-3.41.87a1.79,1.79,0,0,1-.8-2.56C339.21,393.75,340.06,393.1,341.13,393.52Z" style="opacity:0.1"></path><path d="M397,384.77c.93.37,2,1.68,1.63,2.61s-2.05,1.14-3,.76-1.08-1.3-.7-2.24S396.06,384.4,397,384.77Z" style="opacity:0.1"></path><path d="M405.83,390c.93.38,2,1.68,1.62,2.62s-2.05,1.13-3,.76-1.07-1.31-.7-2.24S404.89,389.65,405.83,390Z" style="fill:#fff;opacity:0.30000000000000004"></path><path d="M373.89,390.79c1.59.64,3.35,3,2.65,4.76s-3.62,2.24-5.2,1.6-1.78-2.36-1.07-4.12S372.31,390.15,373.89,390.79Z" style="opacity:0.1"></path><path d="M410.34,377.52c2.15.86,4.53,4.05,3.58,6.43s-4.88,3-7,2.18-2.4-3.2-1.44-5.58S408.2,376.66,410.34,377.52Z" style="fill:#fff;opacity:0.30000000000000004"></path><path d="M365.41,342.74h0a.6.6,0,0,0-.2,1.16c10.8,3.83,19.38,10,24,17.45a1.39,1.39,0,0,0,1.86.46h0a1.4,1.4,0,0,0,.5-2C388,354.06,382.21,349,375,345.15A20.19,20.19,0,0,0,365.41,342.74Z" style="fill:#0969DA"></path><path d="M343.58,342.74h0a.6.6,0,0,0-.2,1.16c9,3.21,16.6,8.08,21.54,14a1.38,1.38,0,0,0,1.91.19h0a1.41,1.41,0,0,0,.21-2,47,47,0,0,0-13.87-10.87A20.32,20.32,0,0,0,343.58,342.74Z" style="fill:#0969DA"></path><path d="M321.86,342.74h-.1a.6.6,0,0,0-.2,1.16c8.5,3,15.72,7.51,20.66,12.94a1.4,1.4,0,0,0,1.91.11h0a1.41,1.41,0,0,0,.12-2,47.75,47.75,0,0,0-12.92-9.82A20.17,20.17,0,0,0,321.86,342.74Z" style="fill:#0969DA"></path><path d="M300,342.74h0a.6.6,0,0,0-.2,1.16c10.65,3.76,19.05,9.73,23.79,17a1.39,1.39,0,0,0,1.87.43h0a1.41,1.41,0,0,0,.45-2c-3.66-5.61-9.3-10.48-16.37-14.24A20.18,20.18,0,0,0,300,342.74Z" style="fill:#0969DA"></path><path d="M278.26,342.74h-.08a.6.6,0,0,0-.2,1.16c10.58,3.77,19.11,9.81,23.81,17a1.38,1.38,0,0,0,1.87.43h0a1.41,1.41,0,0,0,.45-2c-3.66-5.63-9.3-10.48-16.35-14.24A20.18,20.18,0,0,0,278.26,342.74Z" style="fill:#0969DA"></path><path d="M256.46,342.74h-.07a.6.6,0,0,0-.21,1.16c10.59,3.77,19.11,9.81,23.81,17a1.4,1.4,0,0,0,1.87.43h0a1.41,1.41,0,0,0,.46-2c-3.67-5.63-9.3-10.49-16.36-14.25A20.18,20.18,0,0,0,256.46,342.74Z" style="fill:#0969DA"></path><g style="opacity:0.30000000000000004"><path d="M365.41,342.74h0a.6.6,0,0,0-.2,1.16c10.8,3.83,19.38,10,24,17.45a1.39,1.39,0,0,0,1.86.46h0a1.4,1.4,0,0,0,.5-2C388,354.06,382.21,349,375,345.15A20.19,20.19,0,0,0,365.41,342.74Z" style="fill:#fff"></path><path d="M343.58,342.74h0a.6.6,0,0,0-.2,1.16c9,3.21,16.6,8.08,21.54,14a1.38,1.38,0,0,0,1.91.19h0a1.41,1.41,0,0,0,.21-2,47,47,0,0,0-13.87-10.87A20.32,20.32,0,0,0,343.58,342.74Z" style="fill:#fff"></path><path d="M321.86,342.74h-.1a.6.6,0,0,0-.2,1.16c8.5,3,15.72,7.51,20.66,12.94a1.4,1.4,0,0,0,1.91.11h0a1.41,1.41,0,0,0,.12-2,47.75,47.75,0,0,0-12.92-9.82A20.17,20.17,0,0,0,321.86,342.74Z" style="fill:#fff"></path><path d="M300,342.74h0a.6.6,0,0,0-.2,1.16c10.65,3.76,19.05,9.73,23.79,17a1.39,1.39,0,0,0,1.87.43h0a1.41,1.41,0,0,0,.45-2c-3.66-5.61-9.3-10.48-16.37-14.24A20.18,20.18,0,0,0,300,342.74Z" style="fill:#fff"></path><path d="M278.26,342.74h-.08a.6.6,0,0,0-.2,1.16c10.58,3.77,19.11,9.81,23.81,17a1.38,1.38,0,0,0,1.87.43h0a1.41,1.41,0,0,0,.45-2c-3.66-5.63-9.3-10.48-16.35-14.24A20.18,20.18,0,0,0,278.26,342.74Z" style="fill:#fff"></path><path d="M256.46,342.74h-.07a.6.6,0,0,0-.21,1.16c10.59,3.77,19.11,9.81,23.81,17a1.4,1.4,0,0,0,1.87.43h0a1.41,1.41,0,0,0,.46-2c-3.67-5.63-9.3-10.49-16.36-14.25A20.18,20.18,0,0,0,256.46,342.74Z" style="fill:#fff"></path></g><path d="M237.59,365.15h0a6.9,6.9,0,0,1-2.47-9.42h0a6.89,6.89,0,0,1,9.42-2.47h0a6.89,6.89,0,0,1,2.47,9.42h0A6.9,6.9,0,0,1,237.59,365.15Z" style="fill:#0969DA"></path><path d="M234.12,363.11h0a6.88,6.88,0,0,1-2.47-9.41h0a6.89,6.89,0,0,1,9.42-2.47h0a6.9,6.9,0,0,1,2.47,9.42h0A6.89,6.89,0,0,1,234.12,363.11Z" style="fill:#0969DA"></path><path d="M234.12,363.11h0a6.88,6.88,0,0,1-2.47-9.41h0a6.89,6.89,0,0,1,9.42-2.47h0a6.9,6.9,0,0,1,2.47,9.42h0A6.89,6.89,0,0,1,234.12,363.11Z" style="fill:#fff;opacity:0.30000000000000004"></path><path d="M191.41,396.06h0c-1.85,0-2.81-1.31-2.13-2.92l1.54-3.7a5.3,5.3,0,0,1,4.58-2.92h0c1.85,0,2.81,1.31,2.13,2.92l-1.54,3.7A5.32,5.32,0,0,1,191.41,396.06Z" style="fill:#0969DA"></path><path d="M191.41,396.06h0c-1.85,0-2.81-1.31-2.13-2.92l1.54-3.7a5.3,5.3,0,0,1,4.58-2.92h0c1.85,0,2.81,1.31,2.13,2.92l-1.54,3.7A5.32,5.32,0,0,1,191.41,396.06Z" style="fill:#fff;opacity:0.1"></path><path d="M189.45,396.06h0c-1.86,0-2.81-1.31-2.14-2.92l1.54-3.7a5.32,5.32,0,0,1,4.58-2.92h0c1.86,0,2.81,1.31,2.14,2.92l-1.54,3.7A5.32,5.32,0,0,1,189.45,396.06Z" style="fill:#0969DA"></path><path d="M189.45,396.06h0c-1.86,0-2.81-1.31-2.14-2.92l1.54-3.7a5.32,5.32,0,0,1,4.58-2.92h0c1.86,0,2.81,1.31,2.14,2.92l-1.54,3.7A5.32,5.32,0,0,1,189.45,396.06Z" style="fill:#fff;opacity:0.5"></path><path d="M177.07,381.41h0c-1.85,0-2.81-1.32-2.13-2.93l1.54-3.69a5.29,5.29,0,0,1,4.58-2.93h0c1.85,0,2.81,1.31,2.13,2.93l-1.54,3.69A5.31,5.31,0,0,1,177.07,381.41Z" style="fill:#0969DA"></path><path d="M177.07,381.41h0c-1.85,0-2.81-1.32-2.13-2.93l1.54-3.69a5.29,5.29,0,0,1,4.58-2.93h0c1.85,0,2.81,1.31,2.13,2.93l-1.54,3.69A5.31,5.31,0,0,1,177.07,381.41Z" style="fill:#fff;opacity:0.1"></path><path d="M175.11,381.41h0c-1.85,0-2.81-1.32-2.14-2.93l1.55-3.69a5.28,5.28,0,0,1,4.57-2.93h0c1.86,0,2.81,1.31,2.14,2.93l-1.54,3.69A5.33,5.33,0,0,1,175.11,381.41Z" style="fill:#0969DA"></path><path d="M175.11,381.41h0c-1.85,0-2.81-1.32-2.14-2.93l1.55-3.69a5.28,5.28,0,0,1,4.57-2.93h0c1.86,0,2.81,1.31,2.14,2.93l-1.54,3.69A5.33,5.33,0,0,1,175.11,381.41Z" style="fill:#fff;opacity:0.5"></path><path d="M194.14,369.09h0c-1.3,1.32-2.9,1.08-3.58-.53L189,364.87a5.29,5.29,0,0,1,1.12-5.31h0c1.3-1.33,2.9-1.09,3.58.52l1.56,3.69A5.31,5.31,0,0,1,194.14,369.09Z" style="fill:#0969DA"></path><path d="M194.14,369.09h0c-1.3,1.32-2.9,1.08-3.58-.53L189,364.87a5.29,5.29,0,0,1,1.12-5.31h0c1.3-1.33,2.9-1.09,3.58.52l1.56,3.69A5.31,5.31,0,0,1,194.14,369.09Z" style="fill:#fff;opacity:0.1"></path><path d="M192.76,370.49h0c-1.29,1.32-2.9,1.08-3.58-.53l-1.56-3.69a5.29,5.29,0,0,1,1.12-5.31h0c1.3-1.33,2.91-1.09,3.59.52l1.55,3.69A5.31,5.31,0,0,1,192.76,370.49Z" style="fill:#0969DA"></path><path d="M192.76,370.49h0c-1.29,1.32-2.9,1.08-3.58-.53l-1.56-3.69a5.29,5.29,0,0,1,1.12-5.31h0c1.3-1.33,2.91-1.09,3.59.52l1.55,3.69A5.31,5.31,0,0,1,192.76,370.49Z" style="fill:#fff;opacity:0.5"></path><path d="M211.93,405.5H205c-1.9,0-2.88-1.54-2.19-3.44h0a5.47,5.47,0,0,1,4.7-3.45h6.88c1.9,0,2.88,1.55,2.19,3.45h0A5.44,5.44,0,0,1,211.93,405.5Z" style="fill:#0969DA"></path><path d="M207.9,405.5H201c-1.9,0-2.88-1.54-2.19-3.44h0a5.45,5.45,0,0,1,4.69-3.45h6.89c1.9,0,2.88,1.55,2.19,3.45h0A5.46,5.46,0,0,1,207.9,405.5Z" style="fill:#0969DA"></path><path d="M207.9,405.5H201c-1.9,0-2.88-1.54-2.19-3.44h0a5.45,5.45,0,0,1,4.69-3.45h6.89c1.9,0,2.88,1.55,2.19,3.45h0A5.46,5.46,0,0,1,207.9,405.5Z" style="fill:#fff;opacity:0.1"></path><path d="M187.29,357.9h0c-.61-1.75.31-3.08,2.05-3l4,.23a5.32,5.32,0,0,1,4.28,3.35h0c.61,1.75-.31,3.09-2.06,3l-4-.23A5.32,5.32,0,0,1,187.29,357.9Z" style="fill:#0969DA"></path><path d="M187.29,357.9h0c-.61-1.75.31-3.08,2.05-3l4,.23a5.32,5.32,0,0,1,4.28,3.35h0c.61,1.75-.31,3.09-2.06,3l-4-.23A5.32,5.32,0,0,1,187.29,357.9Z" style="fill:#fff;opacity:0.1"></path><path d="M186.64,356.05h0c-.61-1.75.31-3.08,2.05-3l4,.23a5.31,5.31,0,0,1,4.28,3.35h0c.61,1.75-.31,3.09-2.06,3l-4-.24A5.29,5.29,0,0,1,186.64,356.05Z" style="fill:#0969DA"></path><path d="M186.64,356.05h0c-.61-1.75.31-3.08,2.05-3l4,.23a5.31,5.31,0,0,1,4.28,3.35h0c.61,1.75-.31,3.09-2.06,3l-4-.24A5.29,5.29,0,0,1,186.64,356.05Z" style="fill:#fff;opacity:0.5"></path><path d="M166.87,371.73v-2.57a16.92,16.92,0,0,0,16.9-16.91h2.57A19.5,19.5,0,0,1,166.87,371.73Z" style="fill:#0969DA"></path><path d="M165.5,371.73v-2.57a16.92,16.92,0,0,0,16.9-16.91H185A19.5,19.5,0,0,1,165.5,371.73Z" style="fill:#0969DA"></path><g style="opacity:0.6000000000000001"><path d="M165.5,371.73v-2.57a16.92,16.92,0,0,0,16.9-16.91H185A19.5,19.5,0,0,1,165.5,371.73Z" style="fill:#fff"></path></g><path d="M188.34,396.63c1-2.1,4.75-5.53,7-6.06,3-.73,8.37,2.26,11.43,1.63,1.22-.25,3.42-1.54,4.67-1.63,1.58-.13,4.48,1.9,5.6,3,1.49,1.5,4.78,5.51,4,7.47-.65,1.57-4.63,2.24-6.3,2.56-2.46.48-7.53-.24-10,0-2.72.27-8,2.56-10.73,2.1-1.6-.27-4.7-1.92-5.6-3.26S187.73,398,188.34,396.63Z" style="fill:#0969DA"></path><path d="M188.34,396.63c1-2.1,4.75-5.53,7-6.06,3-.73,8.37,2.26,11.43,1.63,1.22-.25,3.42-1.54,4.67-1.63,1.58-.13,4.48,1.9,5.6,3,1.49,1.5,4.78,5.51,4,7.47-.65,1.57-4.63,2.24-6.3,2.56-2.46.48-7.53-.24-10,0-2.72.27-8,2.56-10.73,2.1-1.6-.27-4.7-1.92-5.6-3.26S187.73,398,188.34,396.63Z" style="opacity:0.2"></path><path d="M187.64,395.23c1-2.1,4.75-5.53,7-6.06,3-.73,8.37,2.26,11.43,1.63,1.22-.25,3.42-1.54,4.67-1.63,1.58-.13,4.48,1.9,5.6,3,1.49,1.5,4.78,5.51,4,7.47-.65,1.57-4.63,2.24-6.3,2.56-2.46.48-7.53-.24-10,0-2.72.27-8,2.56-10.73,2.1-1.6-.27-4.7-1.92-5.6-3.26S187,396.56,187.64,395.23Z" style="fill:#0969DA"></path><path d="M187.64,395.23c1-2.1,4.75-5.53,7-6.06,3-.73,8.37,2.26,11.43,1.63,1.22-.25,3.42-1.54,4.67-1.63,1.58-.13,4.48,1.9,5.6,3,1.49,1.5,4.78,5.51,4,7.47-.65,1.57-4.63,2.24-6.3,2.56-2.46.48-7.53-.24-10,0-2.72.27-8,2.56-10.73,2.1-1.6-.27-4.7-1.92-5.6-3.26S187,396.56,187.64,395.23Z" style="fill:#fff;opacity:0.30000000000000004"></path><path d="M217.62,394.64c-1.12-1-4-2.8-5.6-2.69-1.24.08-3.44,1.22-4.67,1.45-3.06.56-8.39-2.1-11.43-1.45-2.25.48-6,3.51-7,5.39a7.15,7.15,0,0,0-.21,4.8,12.36,12.36,0,0,0,4.53,2.19c2.69.46,8-1.83,10.73-2.1,2.5-.24,7.57.48,10,0,1.67-.32,5.65-1,6.3-2.56a3.36,3.36,0,0,0-.4-2.6A20.81,20.81,0,0,0,217.62,394.64Z" style="opacity:0.2"></path><path d="M174.8,375.79c1.42-1.84,5.87-4.32,8.19-4.34,3.13,0,7.65,4.1,10.77,4.17,1.25,0,3.68-.73,4.92-.54,1.57.23,3.93,2.86,4.77,4.21,1.11,1.8,3.42,6.45,2.19,8.17-1,1.38-5,1.14-6.72,1.08-2.51-.08-7.29-1.93-9.78-2.25-2.71-.36-8.4.68-10.93-.37-1.49-.63-4.15-2.93-4.72-4.45C173,380.11,173.92,377,174.8,375.79Z" style="fill:#0969DA"></path><path d="M174.8,375.79c1.42-1.84,5.87-4.32,8.19-4.34,3.13,0,7.65,4.1,10.77,4.17,1.25,0,3.68-.73,4.92-.54,1.57.23,3.93,2.86,4.77,4.21,1.11,1.8,3.42,6.45,2.19,8.17-1,1.38-5,1.14-6.72,1.08-2.51-.08-7.29-1.93-9.78-2.25-2.71-.36-8.4.68-10.93-.37-1.49-.63-4.15-2.93-4.72-4.45C173,380.11,173.92,377,174.8,375.79Z" style="opacity:0.2"></path><path d="M174.44,374.27c1.41-1.84,5.87-4.32,8.18-4.34,3.13,0,7.65,4.09,10.78,4.17,1.24,0,3.67-.73,4.91-.55,1.57.24,3.94,2.87,4.77,4.22,1.12,1.8,3.42,6.45,2.19,8.17-1,1.38-5,1.14-6.72,1.08-2.5-.08-7.29-1.93-9.77-2.26-2.71-.35-8.41.69-10.93-.36-1.5-.63-4.15-2.93-4.73-4.45C172.61,378.59,173.55,375.43,174.44,374.27Z" style="fill:#0969DA"></path><path d="M174.44,374.27c1.41-1.84,5.87-4.32,8.18-4.34,3.13,0,7.65,4.09,10.78,4.17,1.24,0,3.67-.73,4.91-.55,1.57.24,3.94,2.87,4.77,4.22,1.12,1.8,3.42,6.45,2.19,8.17-1,1.38-5,1.14-6.72,1.08-2.5-.08-7.29-1.93-9.77-2.26-2.71-.35-8.41.69-10.93-.36-1.5-.63-4.15-2.93-4.73-4.45C172.61,378.59,173.55,375.43,174.44,374.27Z" style="fill:#fff;opacity:0.30000000000000004"></path><path d="M203.78,380.44c-.86-1.23-3.27-3.64-4.85-3.89-1.23-.19-3.63.42-4.87.37-3.11-.14-7.7-3.93-10.81-4-2.31,0-6.68,2.07-8,3.68a7.18,7.18,0,0,0-1.28,4.63,12.4,12.4,0,0,0,3.92,3.16c2.52,1.05,8.22,0,10.93.36,2.48.33,7.27,2.18,9.77,2.26,1.7.06,5.73.3,6.72-1.08a3.41,3.41,0,0,0,.19-2.62A20.07,20.07,0,0,0,203.78,380.44Z" style="opacity:0.2"></path><path d="M252,381.23c-1.77-1.5-6.65-3-8.91-2.53-3.07.63-6.63,5.6-9.67,6.32-1.22.29-3.75.06-4.92.5-1.49.56-3.25,3.62-3.79,5.12-.71,2-2,7-.43,8.44,1.26,1.15,5.14.07,6.79-.34,2.44-.61,6.73-3.41,9.09-4.25,2.58-.91,8.37-1.09,10.62-2.64,1.33-.93,3.44-3.73,3.69-5.33C254.64,385.07,253.06,382.18,252,381.23Z" style="fill:#0969DA"></path><path d="M252,381.23c-1.77-1.5-6.65-3-8.91-2.53-3.07.63-6.63,5.6-9.67,6.32-1.22.29-3.75.06-4.92.5-1.49.56-3.25,3.62-3.79,5.12-.71,2-2,7-.43,8.44,1.26,1.15,5.14.07,6.79-.34,2.44-.61,6.73-3.41,9.09-4.25,2.58-.91,8.37-1.09,10.62-2.64,1.33-.93,3.44-3.73,3.69-5.33C254.64,385.07,253.06,382.18,252,381.23Z" style="opacity:0.2"></path><path d="M252,379.67c-1.77-1.5-6.65-3-8.91-2.54-3.07.63-6.63,5.6-9.67,6.33-1.21.28-3.75.05-4.92.49-1.49.56-3.25,3.62-3.79,5.12-.71,2-2,7-.43,8.45,1.26,1.14,5.15.06,6.8-.35,2.43-.6,6.72-3.41,9.08-4.25,2.58-.91,8.37-1.08,10.62-2.64,1.33-.92,3.44-3.73,3.69-5.33C254.68,383.51,253.1,380.61,252,379.67Z" style="fill:#0969DA"></path><path d="M252,379.67c-1.77-1.5-6.65-3-8.91-2.54-3.07.63-6.63,5.6-9.67,6.33-1.21.28-3.75.05-4.92.49-1.49.56-3.25,3.62-3.79,5.12-.71,2-2,7-.43,8.45,1.26,1.14,5.15.06,6.8-.35,2.43-.6,6.72-3.41,9.08-4.25,2.58-.91,8.37-1.08,10.62-2.64,1.33-.92,3.44-3.73,3.69-5.33C254.68,383.51,253.1,380.61,252,379.67Z" style="fill:#fff;opacity:0.30000000000000004"></path><path d="M224.57,391.83c.59-1.39,2.45-4.24,3.94-4.81,1.16-.45,3.64-.35,4.84-.67,3-.78,6.71-5.45,9.74-6.15,2.24-.52,7,.63,8.62,1.91a7.22,7.22,0,0,1,2.23,4.27,12.3,12.3,0,0,1-3.17,3.9c-2.25,1.56-8,1.73-10.62,2.64-2.36.84-6.65,3.65-9.08,4.25-1.65.41-5.54,1.49-6.8.35a3.47,3.47,0,0,1-.74-2.53A23.85,23.85,0,0,1,224.57,391.83Z" style="opacity:0.2"></path><path d="M228.7,358.63c-1.76-1.5-6.64-3-8.91-2.53-3.06.63-6.62,5.6-9.66,6.32-1.22.29-3.75.06-4.92.5-1.49.56-3.25,3.62-3.79,5.12-.71,2-2,7-.43,8.44,1.26,1.15,5.14.07,6.79-.34,2.44-.61,6.73-3.41,9.09-4.25,2.58-.91,8.36-1.09,10.61-2.64,1.34-.92,3.45-3.73,3.69-5.33C231.39,362.48,229.81,359.58,228.7,358.63Z" style="fill:#0969DA"></path><path d="M228.7,358.63c-1.76-1.5-6.64-3-8.91-2.53-3.06.63-6.62,5.6-9.66,6.32-1.22.29-3.75.06-4.92.5-1.49.56-3.25,3.62-3.79,5.12-.71,2-2,7-.43,8.44,1.26,1.15,5.14.07,6.79-.34,2.44-.61,6.73-3.41,9.09-4.25,2.58-.91,8.36-1.09,10.61-2.64,1.34-.92,3.45-3.73,3.69-5.33C231.39,362.48,229.81,359.58,228.7,358.63Z" style="opacity:0.2"></path><path d="M228.74,357.07c-1.76-1.5-6.64-3-8.91-2.53-3.06.63-6.62,5.59-9.66,6.32-1.22.29-3.75.06-4.92.49-1.49.56-3.25,3.62-3.79,5.12-.71,2-2,7-.43,8.45,1.26,1.14,5.14.07,6.79-.35,2.44-.6,6.73-3.41,9.09-4.24,2.58-.92,8.37-1.09,10.62-2.65,1.33-.92,3.44-3.73,3.68-5.33C231.43,360.91,229.86,358,228.74,357.07Z" style="fill:#0969DA"></path><path d="M228.74,357.07c-1.76-1.5-6.64-3-8.91-2.53-3.06.63-6.62,5.59-9.66,6.32-1.22.29-3.75.06-4.92.49-1.49.56-3.25,3.62-3.79,5.12-.71,2-2,7-.43,8.45,1.26,1.14,5.14.07,6.79-.35,2.44-.6,6.73-3.41,9.09-4.24,2.58-.92,8.37-1.09,10.62-2.65,1.33-.92,3.44-3.73,3.68-5.33C231.43,360.91,229.86,358,228.74,357.07Z" style="fill:#fff;opacity:0.30000000000000004"></path><path d="M201.33,369.23c.59-1.38,2.45-4.24,3.93-4.81,1.17-.45,3.64-.35,4.85-.66,3-.79,6.71-5.46,9.74-6.16,2.24-.52,7,.63,8.62,1.92a7.16,7.16,0,0,1,2.23,4.26,12.44,12.44,0,0,1-3.17,3.9c-2.25,1.56-8,1.73-10.62,2.65-2.36.83-6.65,3.64-9.09,4.24-1.65.42-5.53,1.49-6.79.35a3.43,3.43,0,0,1-.74-2.53A22.46,22.46,0,0,1,201.33,369.23Z" style="opacity:0.2"></path><path d="M171,387.5h-2.47c-2.39,0-3.62-2.4-2.75-5.36l.89-3.05c.88-3,3.52-5.35,5.91-5.35h2.47c2.39,0,3.63,2.39,2.75,5.35l-.89,3.05C176,385.1,173.39,387.5,171,387.5Z" style="fill:#0969DA"></path><path d="M171,387.5h-2.47c-2.39,0-3.62-2.4-2.75-5.36l.89-3.05c.88-3,3.52-5.35,5.91-5.35h2.47c2.39,0,3.63,2.39,2.75,5.35l-.89,3.05C176,385.1,173.39,387.5,171,387.5Z" style="opacity:0.2"></path><path d="M167.74,387.5h-2.46c-2.39,0-3.63-2.4-2.76-5.36l.9-3.05c.87-3,3.52-5.35,5.91-5.35h2.47c2.39,0,3.62,2.39,2.75,5.35l-.9,3.05C172.78,385.1,170.14,387.5,167.74,387.5Z" style="fill:#0969DA"></path><path d="M237.67,391.8h0a6.87,6.87,0,0,1-4-8.86h0a6.89,6.89,0,0,1,8.87-4h0a6.89,6.89,0,0,1,4,8.87h0A6.87,6.87,0,0,1,237.67,391.8Z" style="fill:#0969DA"></path><path d="M233.9,390.38h0a6.88,6.88,0,0,1-4-8.86h0a6.89,6.89,0,0,1,8.87-4h0a6.88,6.88,0,0,1,4,8.87h0A6.87,6.87,0,0,1,233.9,390.38Z" style="fill:#0969DA"></path><path d="M233.9,390.38h0a6.88,6.88,0,0,1-4-8.86h0a6.89,6.89,0,0,1,8.87-4h0a6.88,6.88,0,0,1,4,8.87h0A6.87,6.87,0,0,1,233.9,390.38Z" style="fill:#fff;opacity:0.30000000000000004"></path><path d="M248.44,376.79l-6.19-3c-1.71-.83-1.91-2.64-.46-4h0a5.44,5.44,0,0,1,5.73-1l6.19,3c1.7.83,1.91,2.65.45,4.05h0A5.41,5.41,0,0,1,248.44,376.79Z" style="fill:#0969DA"></path><path d="M244.82,375l-6.19-3c-1.71-.83-1.91-2.65-.45-4.05h0a5.43,5.43,0,0,1,5.72-1l6.19,3c1.71.84,1.91,2.65.46,4.06h0A5.46,5.46,0,0,1,244.82,375Z" style="fill:#0969DA"></path><path d="M244.82,375l-6.19-3c-1.71-.83-1.91-2.65-.45-4.05h0a5.43,5.43,0,0,1,5.72-1l6.19,3c1.71.84,1.91,2.65.46,4.06h0A5.46,5.46,0,0,1,244.82,375Z" style="fill:#fff;opacity:0.1"></path><path d="M201.31,360.67,200,359.29c-1.3-1.34-.91-3.05.86-3.82l1.83-.79a5.3,5.3,0,0,1,5.54,1l1.33,1.38c1.29,1.34.91,3-.86,3.81l-1.83.79A5.32,5.32,0,0,1,201.31,360.67Z" style="fill:#0969DA"></path><path d="M201.31,360.67,200,359.29c-1.3-1.34-.91-3.05.86-3.82l1.83-.79a5.3,5.3,0,0,1,5.54,1l1.33,1.38c1.29,1.34.91,3-.86,3.81l-1.83.79A5.32,5.32,0,0,1,201.31,360.67Z" style="opacity:0.2"></path><path d="M199.55,358.85l-1.33-1.38c-1.29-1.34-.9-3.05.87-3.81l1.82-.8a5.32,5.32,0,0,1,5.55,1l1.33,1.38c1.29,1.34.9,3-.87,3.81l-1.83.8A5.34,5.34,0,0,1,199.55,358.85Z" style="fill:#0969DA"></path><path d="M209.34,351.66l1.84-1A13.84,13.84,0,0,0,230,356.1l1,1.84A16,16,0,0,1,209.34,351.66Z" style="fill:#0969DA"></path><path d="M208.8,350.67l1.84-1a13.85,13.85,0,0,0,18.78,5.46l1,1.84A15.94,15.94,0,0,1,208.8,350.67Z" style="fill:#0969DA"></path><g style="opacity:0.6000000000000001"><path d="M208.8,350.67l1.84-1a13.85,13.85,0,0,0,18.78,5.46l1,1.84A15.94,15.94,0,0,1,208.8,350.67Z" style="fill:#fff"></path></g><path d="M222.69,366.49c-4.48-.25-19.83-1.4-16.8,6.3s-13.07,7.24-6.07,12.37,27.37,1.63,24.3-2.92,17.7-8.05,12.92-11.31-7.58-.47-9.68-.94S224.78,366.61,222.69,366.49Z" style="fill:#0969DA"></path><g style="opacity:0.30000000000000004"><path d="M211.26,369.88a29.23,29.23,0,0,1,8.4,3.34S215.46,368.59,211.26,369.88Z" style="fill:#fff"></path><path d="M218.11,375.16a49.7,49.7,0,0,1,6-3.42s-8,1.86-12.71,6.58a8.72,8.72,0,0,0-7.85,2.17,25.31,25.31,0,0,1,7.56-1.86,11,11,0,0,0-3,5.54,34.87,34.87,0,0,1,5.95-6c5,2.9,5.6,5.39,5.6,5.39.94-4.43-5.58-5.38-5.6-5.39.91-.75,1.93-1.53,3.07-2.32,6-1.33,9.76.24,9.76.24C224.14,373.54,220.38,374.32,218.11,375.16Z" style="fill:#fff"></path><path d="M232.23,372.79c-4.46-1.4-8.11,1.78-8.11,1.78C227.07,372.86,232.23,372.79,232.23,372.79Z" style="fill:#fff"></path></g><path d="M184.72,375.28c-4.21-1.54-18.58-7.08-17.9,1.17s-14.6,3.15-9.38,10.09,25.73,9.47,24.11,4.23,19.26-2.6,15.63-7.11-7.12-2.63-9-3.69S186.69,376,184.72,375.28Z" style="fill:#0969DA"></path><g style="opacity:0.30000000000000004"><path d="M172.8,375.21a29.58,29.58,0,0,1,7.08,5.63S177.19,375.2,172.8,375.21Z" style="fill:#fff"></path><path d="M177.83,382.24a51.23,51.23,0,0,1,6.75-1.52s-8.15-.53-14.07,2.62a8.71,8.71,0,0,0-8.15-.19,25.39,25.39,0,0,1,7.78.4,11.13,11.13,0,0,0-4.49,4.43,35.48,35.48,0,0,1,7.44-4.05c4,4.23,3.81,6.78,3.81,6.78,2.18-4-3.78-6.77-3.81-6.78,1.1-.45,2.3-.91,3.61-1.33,6.15.47,9.28,3,9.28,3C184.08,382.44,180.25,382.1,177.83,382.24Z" style="fill:#fff"></path><path d="M192,384.06c-3.86-2.63-8.27-.63-8.27-.63C187.08,382.63,192,384.06,192,384.06Z" style="fill:#fff"></path></g><path d="M233.65,381.34c4.47-.24,19.83-1.4,16.8,6.3s13.06,7.24,6.06,12.37-27.37,1.63-24.3-2.92-17.69-8-12.91-11.31,7.58-.47,9.68-.94S231.56,381.46,233.65,381.34Z" style="fill:#0969DA"></path><g style="opacity:0.30000000000000004"><path d="M245.08,384.73a29.73,29.73,0,0,0-8.41,3.34S240.88,383.44,245.08,384.73Z" style="fill:#fff"></path><path d="M238.23,390a51.25,51.25,0,0,0-6-3.42s7.95,1.86,12.71,6.59a8.7,8.7,0,0,1,7.86,2.16,25.84,25.84,0,0,0-7.56-1.86,11.1,11.1,0,0,1,3,5.54,35.36,35.36,0,0,0-5.95-6c-5,2.9-5.61,5.39-5.61,5.39-.94-4.43,5.58-5.38,5.61-5.39-.92-.75-1.94-1.53-3.07-2.32-6-1.33-9.77.24-9.77.24C232.19,388.39,236,389.17,238.23,390Z" style="fill:#fff"></path><path d="M224.11,387.64c4.46-1.4,8.1,1.79,8.1,1.79C229.26,387.71,224.11,387.64,224.11,387.64Z" style="fill:#fff"></path></g><path d="M204.12,401l1.27-1.67a13.85,13.85,0,0,0,19.37-2.66l1.67,1.27A15.93,15.93,0,0,1,204.12,401Z" style="fill:#0969DA"></path><path d="M203.23,400.34l1.27-1.67A13.83,13.83,0,0,0,223.87,396l1.67,1.27A15.93,15.93,0,0,1,203.23,400.34Z" style="fill:#0969DA"></path><g style="opacity:0.6000000000000001"><path d="M203.23,400.34l1.27-1.67A13.83,13.83,0,0,0,223.87,396l1.67,1.27A15.93,15.93,0,0,1,203.23,400.34Z" style="fill:#fff"></path></g><path d="M234.41,390.26l-.92-1.89a13.83,13.83,0,0,0,6.4-18.47l1.89-.92A15.94,15.94,0,0,1,234.41,390.26Z" style="fill:#0969DA"></path><path d="M233.4,390.75l-.91-1.89a13.85,13.85,0,0,0,6.4-18.47l1.88-.92A15.94,15.94,0,0,1,233.4,390.75Z" style="fill:#0969DA"></path><g style="opacity:0.6000000000000001"><path d="M233.4,390.75l-.91-1.89a13.85,13.85,0,0,0,6.4-18.47l1.88-.92A15.94,15.94,0,0,1,233.4,390.75Z" style="fill:#fff"></path></g><path d="M182.56,399.31l-1.62-1c-1.58-1-1.62-2.73-.09-3.91l1.58-1.21a5.32,5.32,0,0,1,5.63-.35l1.62,1c1.58,1,1.62,2.73.09,3.9L188.19,399A5.34,5.34,0,0,1,182.56,399.31Z" style="fill:#0969DA"></path><path d="M182.56,399.31l-1.62-1c-1.58-1-1.62-2.73-.09-3.91l1.58-1.21a5.32,5.32,0,0,1,5.63-.35l1.62,1c1.58,1,1.62,2.73.09,3.9L188.19,399A5.34,5.34,0,0,1,182.56,399.31Z" style="opacity:0.2"></path><path d="M180.42,398l-1.63-1c-1.58-1-1.61-2.73-.08-3.91l1.57-1.21a5.34,5.34,0,0,1,5.63-.35l1.63,1c1.57,1,1.61,2.73.08,3.91L186,397.62A5.3,5.3,0,0,1,180.42,398Z" style="fill:#0969DA"></path><path d="M173.48,384.89l2-.68A13.83,13.83,0,0,0,193,392.82l.68,2A15.94,15.94,0,0,1,173.48,384.89Z" style="fill:#0969DA"></path><path d="M173.12,383.83l2-.68a13.84,13.84,0,0,0,17.56,8.61l.68,2A15.94,15.94,0,0,1,173.12,383.83Z" style="fill:#0969DA"></path><g style="opacity:0.6000000000000001"><path d="M173.12,383.83l2-.68a13.84,13.84,0,0,0,17.56,8.61l.68,2A15.94,15.94,0,0,1,173.12,383.83Z" style="fill:#fff"></path></g><path d="M186.55,375.81l-1.33-1.37c-1.29-1.34-.9-3.05.87-3.82l1.82-.79a5.3,5.3,0,0,1,5.54,1l1.34,1.38c1.29,1.33.9,3-.87,3.81l-1.83.79A5.3,5.3,0,0,1,186.55,375.81Z" style="fill:#0969DA"></path><path d="M186.55,375.81l-1.33-1.37c-1.29-1.34-.9-3.05.87-3.82l1.82-.79a5.3,5.3,0,0,1,5.54,1l1.34,1.38c1.29,1.33.9,3-.87,3.81l-1.83.79A5.3,5.3,0,0,1,186.55,375.81Z" style="opacity:0.2"></path><path d="M184.79,374l-1.33-1.38c-1.29-1.34-.9-3.05.87-3.82l1.83-.79a5.3,5.3,0,0,1,5.54,1l1.33,1.38c1.29,1.34.9,3-.87,3.81l-1.82.79A5.34,5.34,0,0,1,184.79,374Z" style="fill:#0969DA"></path><path d="M161.27,377.26h0c-.61-1.75.31-3.09,2.06-3l4,.24a5.29,5.29,0,0,1,4.28,3.35h0c.61,1.75-.31,3.08-2,3l-4-.23A5.31,5.31,0,0,1,161.27,377.26Z" style="fill:#0969DA"></path><path d="M161.27,377.26h0c-.61-1.75.31-3.09,2.06-3l4,.24a5.29,5.29,0,0,1,4.28,3.35h0c.61,1.75-.31,3.08-2,3l-4-.23A5.31,5.31,0,0,1,161.27,377.26Z" style="fill:#fff;opacity:0.1"></path><path d="M160.62,375.41h0c-.61-1.75.31-3.09,2.06-3l4,.23A5.32,5.32,0,0,1,171,376h0c.61,1.75-.31,3.08-2,3l-4-.23A5.32,5.32,0,0,1,160.62,375.41Z" style="fill:#0969DA"></path><path d="M160.62,375.41h0c-.61-1.75.31-3.09,2.06-3l4,.23A5.32,5.32,0,0,1,171,376h0c.61,1.75-.31,3.08-2,3l-4-.23A5.32,5.32,0,0,1,160.62,375.41Z" style="fill:#fff;opacity:0.5"></path><path d="M169.87,376.24v-2.57a16.93,16.93,0,0,0,16.91-16.91h2.56A19.5,19.5,0,0,1,169.87,376.24Z" style="fill:#0969DA"></path><path d="M168.5,376.24v-2.57a16.93,16.93,0,0,0,16.91-16.91H188A19.5,19.5,0,0,1,168.5,376.24Z" style="fill:#0969DA"></path><g style="opacity:0.6000000000000001"><path d="M168.5,376.24v-2.57a16.93,16.93,0,0,0,16.91-16.91H188A19.5,19.5,0,0,1,168.5,376.24Z" style="fill:#fff"></path></g><path d="M234.41,372.9h-6.88c-1.9,0-2.88-1.54-2.19-3.44h0A5.44,5.44,0,0,1,230,366h6.88c1.9,0,2.88,1.54,2.19,3.44h0A5.45,5.45,0,0,1,234.41,372.9Z" style="fill:#0969DA"></path><path d="M230.39,372.9h-6.88c-1.91,0-2.89-1.54-2.19-3.44h0A5.44,5.44,0,0,1,226,366h6.88c1.9,0,2.88,1.54,2.19,3.44h0A5.44,5.44,0,0,1,230.39,372.9Z" style="fill:#0969DA"></path><path d="M230.39,372.9h-6.88c-1.91,0-2.89-1.54-2.19-3.44h0A5.44,5.44,0,0,1,226,366h6.88c1.9,0,2.88,1.54,2.19,3.44h0A5.44,5.44,0,0,1,230.39,372.9Z" style="fill:#fff;opacity:0.1"></path><path d="M215.37,365.61h0c-1.3,1.32-2.9,1.09-3.59-.52l-1.55-3.69a5.3,5.3,0,0,1,1.12-5.32h0c1.29-1.32,2.9-1.09,3.58.53l1.56,3.68A5.3,5.3,0,0,1,215.37,365.61Z" style="fill:#0969DA"></path><path d="M215.37,365.61h0c-1.3,1.32-2.9,1.09-3.59-.52l-1.55-3.69a5.3,5.3,0,0,1,1.12-5.32h0c1.29-1.32,2.9-1.09,3.58.53l1.56,3.68A5.3,5.3,0,0,1,215.37,365.61Z" style="fill:#fff;opacity:0.1"></path><path d="M214,367h0c-1.29,1.33-2.9,1.09-3.58-.52l-1.56-3.69a5.31,5.31,0,0,1,1.12-5.32h0c1.3-1.32,2.9-1.09,3.59.53l1.55,3.68A5.3,5.3,0,0,1,214,367Z" style="fill:#0969DA"></path><path d="M214,367h0c-1.29,1.33-2.9,1.09-3.58-.52l-1.56-3.69a5.31,5.31,0,0,1,1.12-5.32h0c1.3-1.32,2.9-1.09,3.59.53l1.55,3.68A5.3,5.3,0,0,1,214,367Z" style="fill:#fff;opacity:0.5"></path><path d="M210.58,392.31h0c-.62-1.75.3-3.09,2-3l4,.23a5.28,5.28,0,0,1,4.27,3.35h0c.62,1.75-.3,3.09-2.05,3l-4-.23A5.29,5.29,0,0,1,210.58,392.31Z" style="fill:#0969DA"></path><path d="M210.58,392.31h0c-.62-1.75.3-3.09,2-3l4,.23a5.28,5.28,0,0,1,4.27,3.35h0c.62,1.75-.3,3.09-2.05,3l-4-.23A5.29,5.29,0,0,1,210.58,392.31Z" style="fill:#fff;opacity:0.1"></path><path d="M209.93,390.46h0c-.62-1.75.3-3.09,2-3l4,.24a5.28,5.28,0,0,1,4.27,3.35h0c.62,1.75-.3,3.08-2.05,3l-4-.23A5.29,5.29,0,0,1,209.93,390.46Z" style="fill:#0969DA"></path><path d="M209.93,390.46h0c-.62-1.75.3-3.09,2-3l4,.24a5.28,5.28,0,0,1,4.27,3.35h0c.62,1.75-.3,3.08-2.05,3l-4-.23A5.29,5.29,0,0,1,209.93,390.46Z" style="fill:#fff;opacity:0.5"></path></g><g id="freepik--Tomato--inject-211"><path d="M427.19,228.73a34.1,34.1,0,0,0-10.83-4.08,34.69,34.69,0,0,0-8.86-7.45c-16.94-9.9-39-3.66-49.32,13.94s-4.92,39.92,12,49.82c.86.51,1.73,1,2.62,1.39a97.13,97.13,0,0,1,14.58,8.53c.8.56,1.63,1.1,2.49,1.61,16.94,9.9,39,3.66,49.32-13.94S444.13,238.63,427.19,228.73Z" style="fill:#0969DA"></path><path d="M410.48,230.14,399,237.35s12.85-3,16.95-1.82c2.67.76,6.63,5.12,9.16,6.26S436,244.53,436,244.53s-7.42-4.34-9.5-6.28a42,42,0,0,1-3.29-4.27s7.35-2,9.87-2.35c2.11-.26,8.52-.07,8.52-.07s-7.24-3.9-9.91-4.35c-2.9-.5-11.72.9-11.72.9a78.21,78.21,0,0,0-3.28-8.6c-1.83-3.24-9.21-11.71-9.21-11.71s4.06,8,4.66,10.86a45.16,45.16,0,0,1,0,7.05s-5.69-4.41-7.89-5.34c-2.88-1.21-12.26-2.48-12.26-2.48s9,3.92,11.74,6.15C405.52,225.46,410.48,230.14,410.48,230.14Z" style="fill:#0969DA"></path><path d="M410.48,230.14,399,237.35s12.85-3,16.95-1.82c2.67.76,6.63,5.12,9.16,6.26S436,244.53,436,244.53s-7.42-4.34-9.5-6.28a42,42,0,0,1-3.29-4.27s7.35-2,9.87-2.35c2.11-.26,8.52-.07,8.52-.07s-7.24-3.9-9.91-4.35c-2.9-.5-11.72.9-11.72.9a78.21,78.21,0,0,0-3.28-8.6c-1.83-3.24-9.21-11.71-9.21-11.71s4.06,8,4.66,10.86a45.16,45.16,0,0,1,0,7.05s-5.69-4.41-7.89-5.34c-2.88-1.21-12.26-2.48-12.26-2.48s9,3.92,11.74,6.15C405.52,225.46,410.48,230.14,410.48,230.14Z" style="opacity:0.30000000000000004"></path><path d="M415.76,228.46l5.35-8a3,3,0,0,1,4.4-.64h0a3,3,0,0,1,.09,4.54l-7.11,6.42a1.83,1.83,0,0,1-2.14.22h0A1.82,1.82,0,0,1,415.76,228.46Z" style="fill:#0969DA"></path><path d="M425.51,219.87a2.19,2.19,0,1,0-2.54,3.3,2.19,2.19,0,1,0,2.54-3.3Z" style="fill:#fff;opacity:0.2"></path><path d="M442.59,271a37.71,37.71,0,0,1-1.75,3.4c-9.8,16.75-30.81,22.69-46.92,13.26-.82-.48-1.61-1-2.38-1.53A92.47,92.47,0,0,0,377.67,278c-.84-.39-1.67-.83-2.49-1.31-16.12-9.43-21.24-30.65-11.44-47.41A35.79,35.79,0,0,1,384.42,213a37.41,37.41,0,0,0-26.24,18.18c-10.3,17.61-4.92,39.92,12,49.82.86.51,1.73,1,2.62,1.39a97.13,97.13,0,0,1,14.58,8.53c.8.56,1.63,1.1,2.49,1.61,16.94,9.9,39,3.66,49.32-13.94A38.16,38.16,0,0,0,442.59,271Z" style="opacity:0.2"></path><ellipse cx="380.64" cy="231.08" rx="9.7" ry="8.77" transform="translate(-53.56 329.87) rotate(-44.08)" style="fill:#fff;opacity:0.2"></ellipse></g><g id="freepik--chilli-pepper--inject-211"><path d="M308.62,247.63c.81.42,5.41-4.78,7.58-7.22a183.05,183.05,0,0,1,13.93-14.34,148.8,148.8,0,0,1,26.29-18.43,7.75,7.75,0,0,0,3.3-10c-1.79-3.59-6.72-4.85-10.65-2.48a101.33,101.33,0,0,0-26.48,24C318,224.92,307,246.79,308.62,247.63Z" style="fill:#0969DA"></path><path d="M352.08,205.64c-.36-.57.19-1.55,1.22-2.19s2.16-.7,2.51-.14-.19,1.55-1.23,2.19S352.43,206.21,352.08,205.64Z" style="fill:#fff;opacity:0.2"></path><path d="M308.61,247.62c-1-1.64,10.07-22,14.69-27.49a97,97,0,0,1,26.84-22.42c3.85-2.1,8.53-.74,10.31,2.7a6.9,6.9,0,0,0-.73-2.81c-1.79-3.59-6.72-4.85-10.65-2.48a101.33,101.33,0,0,0-26.48,24C318,224.92,307,246.75,308.61,247.62Z" style="opacity:0.2"></path><g style="opacity:0.30000000000000004"><path d="M329.62,216.64a99.36,99.36,0,0,1,13.75-11.54.65.65,0,0,1,.92.18h0a.65.65,0,0,1-.17.91,102.27,102.27,0,0,0-19.59,17.92A99.06,99.06,0,0,0,316,237.6a.68.68,0,0,1-.9.26h0a.66.66,0,0,1-.26-.9,101.87,101.87,0,0,1,8.68-13.71C325.47,221,327.51,218.74,329.62,216.64Z" style="fill:#fff"></path></g><polygon points="361.33 197.18 360.72 195.12 357.82 194.15 357.58 197.36 357.01 200.01 359.33 202.74 361.2 202.49 361.35 199.69 361.33 197.18" style="fill:#0969DA"></polygon><polygon points="361.33 197.18 360.72 195.12 357.82 194.15 357.58 197.36 357.01 200.01 359.33 202.74 361.2 202.49 361.35 199.69 361.33 197.18" style="opacity:0.30000000000000004"></polygon><path d="M361.26,196.29s2.82.24,3.76.19c3.33-.15,9.9-2.39,13.2-1.91a3.52,3.52,0,0,1,.94.38.83.83,0,0,1,.15,1.38h0a.8.8,0,0,1-.72.18,14.24,14.24,0,0,0-1.65-.28c-3,0-8.89,1.38-11.74,2.28-.85.27-3.25,1.46-3.25,1.46a1.92,1.92,0,0,1-2.67-1.37h0A1.93,1.93,0,0,1,361.26,196.29Z" style="fill:#0969DA"></path><path d="M378.61,196.52a.84.84,0,0,0,.7-.19h0a.82.82,0,0,0-.1-1.34,1,1,0,0,0-.63.46A.8.8,0,0,0,378.61,196.52Z" style="opacity:0.2"></path></g><g id="freepik--Onion--inject-211"><path d="M335.72,157.81c4.55-15.65-4.13-34.62-20.57-44a1.72,1.72,0,0,1-.59-2.57.81.81,0,0,1,.16-.16,16.72,16.72,0,0,1,4.57-1.42,3.45,3.45,0,0,0,2.59-2.41h0a3.44,3.44,0,0,0-3.68-4.38c-3.19.34-7,.88-8.71,1.62a30.77,30.77,0,0,0-5.59,4.13,1.79,1.79,0,0,1-1.51.38c-21.33-4.45-42.65,7.67-47.75,25.19-4.28,14.74,4.21,28.82,19.23,37.2a8.92,8.92,0,0,1,4.55,6.93h0L292,182.29h0a8.9,8.9,0,0,1,7.55-3.4C316.71,179.87,331.43,172.54,335.72,157.81Z" style="fill:#0969DA"></path><path d="M335.72,157.81c4.55-15.65-4.13-34.62-20.57-44a1.72,1.72,0,0,1-.59-2.57.81.81,0,0,1,.16-.16,16.72,16.72,0,0,1,4.57-1.42,3.45,3.45,0,0,0,2.59-2.41h0a3.44,3.44,0,0,0-3.68-4.38c-3.19.34-7,.88-8.71,1.62a30.77,30.77,0,0,0-5.59,4.13,1.79,1.79,0,0,1-1.51.38c-21.33-4.45-42.65,7.67-47.75,25.19-4.28,14.74,4.21,28.82,19.23,37.2a8.92,8.92,0,0,1,4.55,6.93h0L292,182.29h0a8.9,8.9,0,0,1,7.55-3.4C316.71,179.87,331.43,172.54,335.72,157.81Z" style="fill:#fff;opacity:0.30000000000000004"></path><path d="M332,156.72c4.1-14.1-4-31.08-18.76-39.49a5.77,5.77,0,0,1-2.83-4,5.38,5.38,0,0,1,1.19-4.47,4.64,4.64,0,0,1,.82-.78,5.32,5.32,0,0,1,.63-.41,11.37,11.37,0,0,0-2,.53s-1.12.51-4.59,3.5a5.58,5.58,0,0,1-4.84,1.24c-18.75-3.91-38.54,6.38-43.22,22.47-3.55,12.21,3.11,24.74,17.39,32.71a12.88,12.88,0,0,1,6,7.23l9.12,2.65a12.85,12.85,0,0,1,8.91-2.9C316.08,175.93,328.43,168.93,332,156.72Z" style="fill:#fff;opacity:0.30000000000000004"></path><path d="M283,175.63A9.77,9.77,0,0,0,279.2,169c-9.91-6.7-13.85-18.44-10.3-30.65,4.59-15.8,20.4-27.05,34.36-24.9a4.3,4.3,0,0,0,3.75-1.64l2.82,1.17a4.38,4.38,0,0,0,1.73,3.6c10,6.62,14.09,22.68,9.9,37.06-3.55,12.21-13.18,20-25.13,20.34a9.79,9.79,0,0,0-6.78,3.53Z" style="fill:#fff;opacity:0.30000000000000004"></path><path d="M284.34,176c0-2.75-.61-4.91-1.72-6-5.53-5.43-6.76-16.38-3.21-28.59,4.52-15.52,16.34-27.63,25.51-27.34.82,0,1.78-.72,2.65-2l1.69.7c-.16,1.53.08,2.69.64,3.2,5.29,4.82,5.32,20,1.05,34.63-3.55,12.21-10.46,20.8-18,22.41-1.52.32-3.19,1.82-4.66,4.14Z" style="fill:#fff;opacity:0.30000000000000004"></path><path d="M308.13,112.3a5.74,5.74,0,0,1-1.55,2.42c-4.29,1.61-12.22,14.53-16.66,29.77-3.55,12.21-5,22.37-3.87,26.52a15.7,15.7,0,0,1-.41,5.38l1.3.38a15.88,15.88,0,0,1,2.54-4.76c3.21-2.88,7.41-12.26,11-24.46,4.35-15,8.5-29.12,7.8-32.2a8.45,8.45,0,0,1,.46-2.82Z" style="fill:#fff;opacity:0.30000000000000004"></path></g><g id="freepik--Cucumber--inject-211"><path d="M221.83,166.24c2.07-1.29,5.52-4.47,6.42-6.36s.69-6,.3-8.23c-.36-2.1-1.62-6.19-3.17-8.25l-2.44-3.25c-1.55-2.06-6-5.57-8.51-7.29-2.69-1.84-8.66-5.34-12-6.48s-9.33-1.67-12.71-2-9.46-.86-12.4-.44a28.23,28.23,0,0,0-9.47,3.45c-2.07,1.47-5.43,4.37-6.42,6.36a17.46,17.46,0,0,0-1.17,7.94,25.55,25.55,0,0,0,3.78,9l2.44,3.25c1.65,2.16,6.19,5.91,8.82,7.7a60.13,60.13,0,0,0,10.84,5.77,89.27,89.27,0,0,0,13.31,2.82,54.56,54.56,0,0,0,12.66-.06A35.19,35.19,0,0,0,221.83,166.24Z" style="fill:#0969DA"></path><path d="M222.94,140.15c1.55,2.06,2.81,6.15,3.17,8.25.38,2.25.63,6.27-.31,8.24s-4.34,5.06-6.41,6.36a35.49,35.49,0,0,1-9.72,4A54.57,54.57,0,0,1,197,167a88,88,0,0,1-13.31-2.82,60.13,60.13,0,0,1-10.84-5.77c-2.63-1.79-7.18-5.54-8.82-7.7a25.74,25.74,0,0,1-3.78-9,17.46,17.46,0,0,1,1.17-7.94c1-2,4.35-4.89,6.42-6.36a28.23,28.23,0,0,1,9.47-3.45c2.94-.42,9.15.12,12.4.44s9.43.89,12.71,2,9.31,4.64,12,6.48C216.94,134.58,221.39,138.09,222.94,140.15Z" style="fill:#fff;opacity:0.30000000000000004"></path><path d="M220.9,140.52a21.49,21.49,0,0,1,2.95,7.67c.36,2.1.59,5.84-.28,7.67s-4,4.71-6,5.92a32.77,32.77,0,0,1-9,3.69,50.88,50.88,0,0,1-11.78.05,81.15,81.15,0,0,1-12.4-2.62,56,56,0,0,1-10.09-5.37,46.74,46.74,0,0,1-8.2-7.16,23.88,23.88,0,0,1-3.52-8.43,16.17,16.17,0,0,1,1.09-7.39c.92-1.85,4-4.55,6-5.92a26.31,26.31,0,0,1,8.82-3.21c2.73-.39,8.51.11,11.54.41s8.77.82,11.83,1.87a62.82,62.82,0,0,1,11.17,6C215.32,135.33,219.46,138.6,220.9,140.52Z" style="fill:#fff;opacity:0.5"></path><path d="M174.29,138.22s12.13,4.9,15.59,4.28c3.87-.7,7-9.17,7-9.17a57.57,57.57,0,0,0-6.12-.83,41.21,41.21,0,0,0-7.14-.25,16.49,16.49,0,0,0-5.45,2,14,14,0,0,0-3.69,3.67A1.92,1.92,0,0,0,174.29,138.22Z" style="fill:#0969DA"></path><path d="M196.17,145c2.18,2.89,16.75,7.19,16.75,7.19a3.41,3.41,0,0,0,.28-.47c.54-1.13.4-3.44.18-4.74a13.45,13.45,0,0,0-1.83-4.74,27,27,0,0,0-4.9-4.2,38.07,38.07,0,0,0-6.91-3.73l-.34-.11S194,142.06,196.17,145Z" style="fill:#0969DA"></path><path d="M188.49,146.34c-1.89-2.51-14.4-6.38-14.4-6.38a9.89,9.89,0,0,0-.28,3.41,14.94,14.94,0,0,0,2.17,5.22,28.45,28.45,0,0,0,5.08,4.42,37.71,37.71,0,0,0,4.9,2.77S190.38,148.85,188.49,146.34Z" style="fill:#0969DA"></path><path d="M209,156.36a15.2,15.2,0,0,0,3.08-2.75s-13.57-5.48-17.44-4.79c-3.47.63-6.23,8.21-6.23,8.21l.05,0a51.8,51.8,0,0,0,7.67,1.62,31.58,31.58,0,0,0,7.28,0A20.59,20.59,0,0,0,209,156.36Z" style="fill:#0969DA"></path><g style="opacity:0.30000000000000004"><path d="M174.29,138.22s12.13,4.9,15.59,4.28c3.87-.7,7-9.17,7-9.17a57.57,57.57,0,0,0-6.12-.83,41.21,41.21,0,0,0-7.14-.25,16.49,16.49,0,0,0-5.45,2,14,14,0,0,0-3.69,3.67A1.92,1.92,0,0,0,174.29,138.22Z" style="fill:#fff"></path><path d="M196.17,145c2.18,2.89,16.75,7.19,16.75,7.19a3.41,3.41,0,0,0,.28-.47c.54-1.13.4-3.44.18-4.74a13.45,13.45,0,0,0-1.83-4.74,27,27,0,0,0-4.9-4.2,38.07,38.07,0,0,0-6.91-3.73l-.34-.11S194,142.06,196.17,145Z" style="fill:#fff"></path><path d="M188.49,146.34c-1.89-2.51-14.4-6.38-14.4-6.38a9.89,9.89,0,0,0-.28,3.41,14.94,14.94,0,0,0,2.17,5.22,28.45,28.45,0,0,0,5.08,4.42,37.71,37.71,0,0,0,4.9,2.77S190.38,148.85,188.49,146.34Z" style="fill:#fff"></path><path d="M209,156.36a15.2,15.2,0,0,0,3.08-2.75s-13.57-5.48-17.44-4.79c-3.47.63-6.23,8.21-6.23,8.21l.05,0a51.8,51.8,0,0,0,7.67,1.62,31.58,31.58,0,0,0,7.28,0A20.59,20.59,0,0,0,209,156.36Z" style="fill:#fff"></path></g><g style="opacity:0.5"><path d="M183.47,136.09c-1-.87-.86-1.45-.18-1.72a2.57,2.57,0,0,1,2.62.73c1,.88,1.25,1.8.58,2.08S184.46,137,183.47,136.09Z" style="fill:#fff"></path><path d="M179.89,138.69c-1.19-.69-1.3-1.28-.83-1.66s1.34-.42,2.53.27,1.78,1.57,1.31,1.95S181.09,139.39,179.89,138.69Z" style="fill:#fff"></path><path d="M189.62,135c-.3-.79.15-1.11.86-1.11a1.75,1.75,0,0,1,1.7,1.12c.29.79,0,1.43-.75,1.42A2.21,2.21,0,0,1,189.62,135Z" style="fill:#fff"></path><path d="M206,146c1.19.19,1.69.65,1.71,1.11s-.46.78-1.66.59-2.17-.72-2.19-1.19S204.82,145.83,206,146Z" style="fill:#fff"></path><path d="M200.18,139.7a1.81,1.81,0,0,1,2.07,0c.58.38.75.89,0,1.36a2.37,2.37,0,0,1-2.37.17C199.31,140.88,199.44,140.18,200.18,139.7Z" style="fill:#fff"></path><path d="M199.38,143.44a2.33,2.33,0,0,1,2.36.71c.37.53.17,1-1,1.22a3.31,3.31,0,0,1-2.84-.64C197.5,144.2,198.18,143.62,199.38,143.44Z" style="fill:#fff"></path><path d="M185.68,140.3c-.83-.71-.73-1.18-.19-1.41a2.06,2.06,0,0,1,2.15.57c.83.7,1.06,1.46.52,1.69A3,3,0,0,1,185.68,140.3Z" style="fill:#fff"></path><path d="M178.93,148c-1.16,0-1.8-.38-2-.87s.11-.89,1.28-.9,2.27.37,2.47.86S180.1,148,178.93,148Z" style="fill:#fff"></path><path d="M177.61,144.07c-1.21-.2-1.71-.67-1.72-1.14s.49-.77,1.7-.57,2.2.75,2.2,1.22S178.82,144.27,177.61,144.07Z" style="fill:#fff"></path><path d="M183.33,146.81c-1.21-.26-1.67-.74-1.62-1.21s.59-.73,1.8-.47,2.15.84,2.1,1.31S184.53,147.06,183.33,146.81Z" style="fill:#fff"></path><path d="M204.78,153.46c.92.66.91,1.15.43,1.43a2.05,2.05,0,0,1-2.17-.43c-.92-.66-1.28-1.42-.8-1.7A3,3,0,0,1,204.78,153.46Z" style="fill:#fff"></path><path d="M198,151.54c.6.77.33,1.19-.32,1.32a2.06,2.06,0,0,1-2-.87c-.6-.77-.56-1.5.08-1.62A2.74,2.74,0,0,1,198,151.54Z" style="fill:#fff"></path><path d="M200.13,156c.6.77.32,1.19-.32,1.31a2,2,0,0,1-2-.86c-.6-.77-.57-1.5.08-1.63A2.79,2.79,0,0,1,200.13,156Z" style="fill:#fff"></path><path d="M195.39,156c0,.77-.66,1-1.4.83s-1.32-.57-1.28-1.34a1.16,1.16,0,0,1,1.41-1.13A1.63,1.63,0,0,1,195.39,156Z" style="fill:#fff"></path><path d="M186.53,150.87a1.52,1.52,0,0,1-1.93.31c-.67-.31-1-.82-.51-1.43a1.89,1.89,0,0,1,2.13-.56A1,1,0,0,1,186.53,150.87Z" style="fill:#fff"></path><path d="M207.14,142.91a2.08,2.08,0,0,1,2.16.47c.41.47.33,1-.67,1.2a2.91,2.91,0,0,1-2.57-.37C205.64,143.75,206.13,143.16,207.14,142.91Z" style="fill:#fff"></path></g><path d="M221.38,151.67c1.21-1.9,2.74-6,2.63-8.13s-2.25-5.95-3.68-8a30.38,30.38,0,0,0-6.75-6.92l-3.72-2.36c-2.36-1.49-8-3.46-11-4.32-3.27-.92-10.22-2.41-13.73-2.45s-9.05,1.33-12.2,2.06-8.78,2.15-11.18,3.47a21.58,21.58,0,0,0-6.73,6.3c-1.12,2.06-2.7,5.9-2.63,8.12a20.17,20.17,0,0,0,2.77,8,33.56,33.56,0,0,0,7.69,7.51c.5.32,3.14,2,3.71,2.35A58,58,0,0,0,178,161.9,64.2,64.2,0,0,0,190.38,164a80.93,80.93,0,0,0,13.13-1.48,45.19,45.19,0,0,0,11.17-4A27,27,0,0,0,221.38,151.67Z" style="fill:#0969DA"></path><path d="M209.86,126.26a30.67,30.67,0,0,1,6.76,6.93c1.42,2,3.56,5.82,3.67,8s-1.41,6.23-2.63,8.13a27,27,0,0,1-6.7,6.86,45.37,45.37,0,0,1-11.16,4,81.06,81.06,0,0,1-13.13,1.48,64.3,64.3,0,0,1-12.36-2.14,58.56,58.56,0,0,1-11.48-4.62,33.56,33.56,0,0,1-7.69-7.51,20.17,20.17,0,0,1-2.77-8c-.07-2.22,1.51-6.06,2.63-8.12a21.58,21.58,0,0,1,6.73-6.3c2.4-1.32,8.15-2.76,11.18-3.47s8.77-2.11,12.2-2.07,10.46,1.54,13.73,2.46C201.88,122.8,207.5,124.77,209.86,126.26Z" style="fill:#fff;opacity:0.30000000000000004"></path><path d="M208.24,127.26a28.46,28.46,0,0,1,6.28,6.44c1.33,1.91,3.32,5.42,3.42,7.45s-1.31,5.8-2.44,7.56a25.13,25.13,0,0,1-6.24,6.39,41.8,41.8,0,0,1-10.39,3.75,75.67,75.67,0,0,1-12.23,1.38,59.49,59.49,0,0,1-11.5-2,55.11,55.11,0,0,1-10.69-4.3,31.53,31.53,0,0,1-7.15-7,18.88,18.88,0,0,1-2.58-7.43c-.07-2.07,1.4-5.64,2.45-7.56a20.15,20.15,0,0,1,6.26-5.86c2.23-1.23,7.59-2.57,10.41-3.23s8.16-2,11.36-1.92,9.74,1.42,12.78,2.28C200.81,124,206,125.87,208.24,127.26Z" style="fill:#fff;opacity:0.5"></path><path d="M165.89,139.69s13.09.9,15.85-.79c3.09-1.88,1.76-11,1.76-11a48.55,48.55,0,0,0-5.82,1.13,34.66,34.66,0,0,0-6.44,2,12.68,12.68,0,0,0-3.87,3.63,12,12,0,0,0-1.51,4.67Z" style="fill:#0969DA"></path><path d="M188.48,139.29c3.32,2.1,18.27,1.65,18.27,1.65a3.41,3.41,0,0,0,0-.54c-.07-1.26-1.3-3.43-2.12-4.61a17.75,17.75,0,0,0-3.88-4,31.92,31.92,0,0,0-6.35-2.49,41.64,41.64,0,0,0-7.9-1.42h-.36S185.17,137.19,188.48,139.29Z" style="fill:#0969DA"></path><path d="M182.35,143c-2.87-1.82-15.8-1.6-15.8-1.6a12.09,12.09,0,0,0,1.39,3.36,19.39,19.39,0,0,0,4.42,4.33,34.43,34.43,0,0,0,6.61,2.66,42.69,42.69,0,0,0,5.66,1.11S185.22,144.85,182.35,143Z" style="fill:#0969DA"></path><path d="M205.3,146.2a12.46,12.46,0,0,0,1.4-3.6s-14.63-1-17.72.88c-2.77,1.69-1.57,9.84-1.57,9.84h.05a45.8,45.8,0,0,0,7.55-.85,25.83,25.83,0,0,0,6.43-2.32A15.5,15.5,0,0,0,205.3,146.2Z" style="fill:#0969DA"></path><g style="opacity:0.30000000000000004"><path d="M165.89,139.69s13.09.9,15.85-.79c3.09-1.88,1.76-11,1.76-11a48.55,48.55,0,0,0-5.82,1.13,34.66,34.66,0,0,0-6.44,2,12.68,12.68,0,0,0-3.87,3.63,12,12,0,0,0-1.51,4.67Z" style="fill:#fff"></path><path d="M188.48,139.29c3.32,2.1,18.27,1.65,18.27,1.65a3.41,3.41,0,0,0,0-.54c-.07-1.26-1.3-3.43-2.12-4.61a17.75,17.75,0,0,0-3.88-4,31.92,31.92,0,0,0-6.35-2.49,41.64,41.64,0,0,0-7.9-1.42h-.36S185.17,137.19,188.48,139.29Z" style="fill:#fff"></path><path d="M182.35,143c-2.87-1.82-15.8-1.6-15.8-1.6a12.09,12.09,0,0,0,1.39,3.36,19.39,19.39,0,0,0,4.42,4.33,34.43,34.43,0,0,0,6.61,2.66,42.69,42.69,0,0,0,5.66,1.11S185.22,144.85,182.35,143Z" style="fill:#fff"></path><path d="M205.3,146.2a12.46,12.46,0,0,0,1.4-3.6s-14.63-1-17.72.88c-2.77,1.69-1.57,9.84-1.57,9.84h.05a45.8,45.8,0,0,0,7.55-.85,25.83,25.83,0,0,0,6.43-2.32A15.5,15.5,0,0,0,205.3,146.2Z" style="fill:#fff"></path></g><g style="opacity:0.5"><path d="M173,134.77c-1.29-.53-1.45-1.12-1-1.6s1.37-.64,2.67-.11,2,1.33,1.51,1.8S174.29,135.29,173,134.77Z" style="fill:#fff"></path><path d="M171.08,138.39c-1.38-.29-1.76-.82-1.53-1.34s1-.82,2.36-.53,2.33.94,2.1,1.46S172.47,138.68,171.08,138.39Z" style="fill:#fff"></path><path d="M177.91,131.79c-.63-.66-.39-1.11.24-1.32a1.88,1.88,0,0,1,2,.54c.64.66.65,1.38,0,1.59A2.51,2.51,0,0,1,177.91,131.79Z" style="fill:#fff"></path><path d="M197.7,137.21c1.14-.19,1.81.09,2,.53s0,.89-1.18,1.08-2.27,0-2.51-.45S196.55,137.41,197.7,137.21Z" style="fill:#fff"></path><path d="M189.51,133a1.55,1.55,0,0,1,1.85-.63c.69.18,1.08.62.66,1.31a2,2,0,0,1-2,.9A1,1,0,0,1,189.51,133Z" style="fill:#fff"></path><path d="M190.59,136.83a2.26,2.26,0,0,1,2.43-.06c.58.39.65.94-.32,1.49a3.11,3.11,0,0,1-2.82.28C189.3,138.15,189.62,137.38,190.59,136.83Z" style="fill:#fff"></path><path d="M177,138.11c-1.07-.41-1.21-.9-.85-1.29s1.11-.54,2.18-.13,1.64,1.07,1.27,1.46S178,138.53,177,138.11Z" style="fill:#fff"></path><path d="M174.67,147.6a2,2,0,0,1-2.19-.2c-.41-.41-.33-.89.69-1.27a2.91,2.91,0,0,1,2.61.05C176.19,146.58,175.7,147.22,174.67,147.6Z" style="fill:#fff"></path><path d="M171.64,144.27c-1.17.19-1.84-.1-2.07-.55s.06-.9,1.23-1.09,2.3,0,2.53.48S172.8,144.08,171.64,144.27Z" style="fill:#fff"></path><path d="M178,145.1c-1.19.13-1.82-.19-2-.65s.17-.88,1.36-1,2.31.13,2.48.59S179.2,145,178,145.1Z" style="fill:#fff"></path><path d="M200.17,144.75c1.13.34,1.36.82,1.06,1.24s-1,.61-2.12.27-1.81-1-1.51-1.38S199,144.4,200.17,144.75Z" style="fill:#fff"></path><path d="M193.27,145c.9.56.85,1,.34,1.37a2.05,2.05,0,0,1-2.19-.2c-.9-.56-1.22-1.27-.71-1.59A2.91,2.91,0,0,1,193.27,145Z" style="fill:#fff"></path><path d="M197.29,148.68c.9.55.85,1,.34,1.36a2,2,0,0,1-2.19-.2c-.9-.55-1.22-1.26-.71-1.58A2.91,2.91,0,0,1,197.29,148.68Z" style="fill:#fff"></path><path d="M193.06,150.1c.33.74-.12,1.13-.84,1.22a1.59,1.59,0,0,1-1.78-.87,1,1,0,0,1,.71-1.53A2,2,0,0,1,193.06,150.1Z" style="fill:#fff"></path><path d="M182.78,148c-.14.75-.81,1-1.55.9s-1.29-.46-1.14-1.22a1.5,1.5,0,0,1,1.61-1.2A1.25,1.25,0,0,1,182.78,148Z" style="fill:#fff"></path><path d="M197.2,133.88a2,2,0,0,1,2.15-.23c.58.32.74.8,0,1.37a2.65,2.65,0,0,1-2.45.45C196.28,135.15,196.43,134.44,197.2,133.88Z" style="fill:#fff"></path></g><path d="M206.78,139.2c.8-2.06,1.47-6.41.95-8.49s-3.37-5.68-5.16-7.55a33.33,33.33,0,0,0-7.93-6.07l-4.07-1.88C188,114,182.13,112.77,179,112.3c-3.36-.5-10.41-1.09-13.83-.68s-8.53,2.5-11.45,3.65-8.11,3.29-10.18,4.93a19.57,19.57,0,0,0-5.29,7.18c-.69,2.21-1.47,6.27-.95,8.48a22.43,22.43,0,0,0,4.26,7.65,36.93,36.93,0,0,0,9,6.54l4.07,1.88a60.22,60.22,0,0,0,12.08,3.14,62.84,62.84,0,0,0,12.42.55,74,74,0,0,0,12.47-3.19,40.4,40.4,0,0,0,10.06-5.49A24.73,24.73,0,0,0,206.78,139.2Z" style="fill:#0969DA"></path><path d="M190.57,115.21a33.86,33.86,0,0,1,7.93,6.07c1.79,1.87,4.61,5.38,5.15,7.56s-.14,6.42-1,8.48a24.71,24.71,0,0,1-5.16,7.75,40.84,40.84,0,0,1-10,5.49A75.42,75.42,0,0,1,175,153.74a62.19,62.19,0,0,1-12.43-.55,60.12,60.12,0,0,1-12.07-3.14,36.93,36.93,0,0,1-9-6.54,22.43,22.43,0,0,1-4.26-7.65c-.52-2.21.26-6.27.95-8.48a19.57,19.57,0,0,1,5.29-7.18c2.07-1.64,7.37-3.82,10.18-4.93s8.1-3.25,11.45-3.65,10.47.18,13.83.68C182.13,112.77,188,114,190.57,115.21Z" style="fill:#fff;opacity:0.30000000000000004"></path><path d="M189.18,116.42a31.25,31.25,0,0,1,7.39,5.65c1.66,1.74,4.29,5,4.79,7s-.14,6-.89,7.9a23,23,0,0,1-4.8,7.21,38,38,0,0,1-9.36,5.11,69.16,69.16,0,0,1-11.6,3,58.82,58.82,0,0,1-11.57-.51,56.1,56.1,0,0,1-11.24-2.93,34.7,34.7,0,0,1-8.33-6.08,21.06,21.06,0,0,1-4-7.12c-.47-2.06.25-5.84.89-7.9a18.39,18.39,0,0,1,4.93-6.68c1.92-1.53,6.86-3.56,9.48-4.59s7.54-3,10.65-3.4,9.75.17,12.87.64C181.33,114.14,186.78,115.31,189.18,116.42Z" style="fill:#fff;opacity:0.5"></path><path d="M150.49,134.37s12.89-.8,15.25-2.84c2.63-2.29-.46-11.24-.46-11.24a44.85,44.85,0,0,0-5.43,1.88A30.94,30.94,0,0,0,154,125a11.42,11.42,0,0,0-3.05,4.14,11.85,11.85,0,0,0-.55,4.88C150.42,134.13,150.45,134.25,150.49,134.37Z" style="fill:#0969DA"></path><path d="M172.36,131c3.64,1.68,18.08-.71,18.08-.71a3.79,3.79,0,0,0-.09-.54c-.31-1.25-1.93-3.27-3-4.35a19.23,19.23,0,0,0-4.57-3.49,32.53,32.53,0,0,0-6.65-1.68,40.71,40.71,0,0,0-8-.39l-.34.05S168.73,129.37,172.36,131Z" style="fill:#0969DA"></path><path d="M167.14,135.59c-3.15-1.45-15.66.44-15.66.44a13.22,13.22,0,0,0,2,3.19,20.94,20.94,0,0,0,5.15,3.76,34,34,0,0,0,7,1.81,40.45,40.45,0,0,0,5.71.39S170.29,137,167.14,135.59Z" style="fill:#0969DA"></path><path d="M190.07,135.8a12.14,12.14,0,0,0,.65-3.8s-14.41.89-17.05,3.18c-2.35,2,.42,10.07.42,10.07h0a42.79,42.79,0,0,0,7.17-1.83,23.5,23.5,0,0,0,5.79-3.16A14.37,14.37,0,0,0,190.07,135.8Z" style="fill:#0969DA"></path><g style="opacity:0.30000000000000004"><path d="M150.49,134.37s12.89-.8,15.25-2.84c2.63-2.29-.46-11.24-.46-11.24a44.85,44.85,0,0,0-5.43,1.88A30.94,30.94,0,0,0,154,125a11.42,11.42,0,0,0-3.05,4.14,11.85,11.85,0,0,0-.55,4.88C150.42,134.13,150.45,134.25,150.49,134.37Z" style="fill:#fff"></path><path d="M172.36,131c3.64,1.68,18.08-.71,18.08-.71a3.79,3.79,0,0,0-.09-.54c-.31-1.25-1.93-3.27-3-4.35a19.23,19.23,0,0,0-4.57-3.49,32.53,32.53,0,0,0-6.65-1.68,40.71,40.71,0,0,0-8-.39l-.34.05S168.73,129.37,172.36,131Z" style="fill:#fff"></path><path d="M167.14,135.59c-3.15-1.45-15.66.44-15.66.44a13.22,13.22,0,0,0,2,3.19,20.94,20.94,0,0,0,5.15,3.76,34,34,0,0,0,7,1.81,40.45,40.45,0,0,0,5.71.39S170.29,137,167.14,135.59Z" style="fill:#fff"></path><path d="M190.07,135.8a12.14,12.14,0,0,0,.65-3.8s-14.41.89-17.05,3.18c-2.35,2,.42,10.07.42,10.07h0a42.79,42.79,0,0,0,7.17-1.83,23.5,23.5,0,0,0,5.79-3.16A14.37,14.37,0,0,0,190.07,135.8Z" style="fill:#fff"></path></g><g style="opacity:0.5"><path d="M156.42,128.51c-1.36-.36-1.63-.94-1.27-1.47s1.21-.82,2.57-.46,2.18,1.08,1.82,1.61S157.78,128.87,156.42,128.51Z" style="fill:#fff"></path><path d="M155.28,132.39c-1.41-.11-1.88-.6-1.76-1.14s.79-.95,2.2-.84,2.44.65,2.32,1.19S156.68,132.5,155.28,132.39Z" style="fill:#fff"></path><path d="M160.62,124.89c-.76-.58-.6-1.06,0-1.36a1.89,1.89,0,0,1,2.09.28c.75.58.9,1.3.34,1.6A2.53,2.53,0,0,1,160.62,124.89Z" style="fill:#fff"></path><path d="M180.91,127.77c1.07-.35,1.77-.15,2.09.26s.14.89-.93,1.24-2.21.29-2.53-.13S179.83,128.11,180.91,127.77Z" style="fill:#fff"></path><path d="M172.12,124.59a1.42,1.42,0,0,1,1.67-.87c.71.1,1.17.48.9,1.22a1.77,1.77,0,0,1-1.78,1.17A1,1,0,0,1,172.12,124.59Z" style="fill:#fff"></path><path d="M173.93,128.3a2.15,2.15,0,0,1,2.35-.37c.64.32.81.85,0,1.53a2.88,2.88,0,0,1-2.68.65C172.93,129.79,173.09,129,173.93,128.3Z" style="fill:#fff"></path><path d="M160.94,131.35c-1.12-.28-1.35-.75-1.07-1.19s1-.68,2.08-.4,1.81.86,1.53,1.3S162.07,131.63,160.94,131.35Z" style="fill:#fff"></path><path d="M160.58,141.16a2,2,0,0,1-2.17.08c-.48-.35-.49-.84.43-1.36a2.8,2.8,0,0,1,2.54-.29C161.86,140,161.51,140.65,160.58,141.16Z" style="fill:#fff"></path><path d="M157,138.22c-1.1.34-1.81.13-2.12-.29s-.12-.91,1-1.25,2.24-.27,2.56.16S158.08,137.88,157,138.22Z" style="fill:#fff"></path><path d="M163.33,138.23c-1.14.28-1.81.05-2.07-.39s0-.91,1.12-1.2,2.26-.16,2.52.27S164.46,137.94,163.33,138.23Z" style="fill:#fff"></path><path d="M184.8,135c1.17.2,1.48.65,1.28,1.11s-.85.74-2,.54-1.94-.73-1.74-1.18S183.64,134.8,184.8,135Z" style="fill:#fff"></path><path d="M178.15,136.18c1,.44,1,.94.6,1.32a2,2,0,0,1-2.17.09c-1-.44-1.43-1.11-1-1.5A2.8,2.8,0,0,1,178.15,136.18Z" style="fill:#fff"></path><path d="M182.77,139.32c1,.44,1,.93.61,1.32a2,2,0,0,1-2.17.09c-1-.44-1.44-1.11-1-1.5A2.78,2.78,0,0,1,182.77,139.32Z" style="fill:#fff"></path><path d="M178.94,141.29c.47.7.11,1.15-.57,1.34a1.65,1.65,0,0,1-1.9-.65c-.47-.71-.3-1.44.38-1.63A2.09,2.09,0,0,1,178.94,141.29Z" style="fill:#fff"></path><path d="M168.55,140.51c0,.77-.6,1.1-1.34,1.11s-1.34-.3-1.35-1.07a1.39,1.39,0,0,1,1.34-1.42A1.36,1.36,0,0,1,168.55,140.51Z" style="fill:#fff"></path><path d="M179.77,124.49a1.82,1.82,0,0,1,2-.5c.63.24.88.7.24,1.37a2.39,2.39,0,0,1-2.29.76C179.13,125.88,179.13,125.15,179.77,124.49Z" style="fill:#fff"></path></g><path d="M246.14,203.27c-.32-2.41-1.81-7-3.16-8.86s-5.18-4.14-7.4-5.2c-2.06-1-6.32-2.46-8.84-2.48l-4,0c-2.52,0-7.57,1.34-10.17,2.28-2.8,1-8.47,3.57-10.89,5.5s-5.38,6.31-7.08,8.75-4.7,6.9-5.54,9.46a25,25,0,0,0-.75,9.5c.48,2.51,1.75,6.88,3.16,8.86a23.86,23.86,0,0,0,6.76,5.69,29.45,29.45,0,0,0,9.84,2.49l4,0c2.64,0,8-1.29,10.67-2.27a44.81,44.81,0,0,0,9.75-5,61.89,61.89,0,0,0,8.08-8.74,39.27,39.27,0,0,0,5.17-10A31.35,31.35,0,0,0,246.14,203.27Z" style="fill:#0969DA"></path><path d="M222.76,186.69c2.53,0,6.78,1.5,8.85,2.48s6,3.28,7.4,5.2,2.83,6.45,3.16,8.86a31.94,31.94,0,0,1-.4,10,39.64,39.64,0,0,1-5.18,10,61.24,61.24,0,0,1-8.07,8.74,45.11,45.11,0,0,1-9.76,5c-2.72,1-8,2.28-10.67,2.27a29.45,29.45,0,0,1-9.84-2.49,23.86,23.86,0,0,1-6.76-5.69c-1.41-2-2.68-6.35-3.16-8.86a25,25,0,0,1,.75-9.5c.84-2.56,3.89-7.1,5.54-9.46s4.7-6.85,7.08-8.75,8.09-4.5,10.89-5.5C215.19,188,220.24,186.66,222.76,186.69Z" style="fill:#fff;opacity:0.30000000000000004"></path><path d="M222.25,188.5c2.35,0,6.32,1.4,8.24,2.31s5.57,3.06,6.89,4.84,2.63,6,2.94,8.25a29.63,29.63,0,0,1-.37,9.31,37.12,37.12,0,0,1-4.82,9.27,56.21,56.21,0,0,1-7.52,8.13,41.79,41.79,0,0,1-9.08,4.68,39,39,0,0,1-9.93,2.11,27,27,0,0,1-9.16-2.32,22.24,22.24,0,0,1-6.3-5.29c-1.31-1.84-2.49-5.92-2.94-8.25a23.27,23.27,0,0,1,.71-8.85c.77-2.37,3.62-6.6,5.15-8.79s4.38-6.38,6.59-8.15,7.53-4.19,10.13-5.12C215.2,189.76,219.91,188.48,222.25,188.5Z" style="fill:#fff;opacity:0.5"></path><path d="M200.89,223.65s9.49-6.55,10.35-9.64c1-3.46-5.5-11-5.5-11a41.22,41.22,0,0,0-3.29,4.3,29.32,29.32,0,0,0-3.18,5.44,14.33,14.33,0,0,0-.44,5.47,16.22,16.22,0,0,0,1.82,5.1A3.15,3.15,0,0,0,200.89,223.65Z" style="fill:#0969DA"></path><path d="M216.09,210.56c3.54,0,13.5-8.79,13.5-8.79a4.35,4.35,0,0,0-.32-.5,13.44,13.44,0,0,0-4.26-3,15.75,15.75,0,0,0-5.09-1.43,22.81,22.81,0,0,0-5.85,1.32,29,29,0,0,0-6.27,3.16l-.24.21S212.54,210.52,216.09,210.56Z" style="fill:#0969DA"></path><path d="M214.18,217.41c-3.07,0-11.78,7.45-11.78,7.45a13.69,13.69,0,0,0,3,2.27,17,17,0,0,0,5.66,1.44,24.53,24.53,0,0,0,6.15-1.31,29.79,29.79,0,0,0,4.54-2.18S217.25,217.45,214.18,217.41Z" style="fill:#0969DA"></path><path d="M231.81,207.37a16.79,16.79,0,0,0-1.24-4.07S220,210.64,219,214.09c-.87,3.09,4.93,9.82,4.93,9.82l0,0a34.59,34.59,0,0,0,4.65-5,22.4,22.4,0,0,0,3-5.73A18.35,18.35,0,0,0,231.81,207.37Z" style="fill:#0969DA"></path><g style="opacity:0.30000000000000004"><path d="M200.89,223.65s9.49-6.55,10.35-9.64c1-3.46-5.5-11-5.5-11a41.22,41.22,0,0,0-3.29,4.3,29.32,29.32,0,0,0-3.18,5.44,14.33,14.33,0,0,0-.44,5.47,16.22,16.22,0,0,0,1.82,5.1A3.15,3.15,0,0,0,200.89,223.65Z" style="fill:#fff"></path><path d="M216.09,210.56c3.54,0,13.5-8.79,13.5-8.79a4.35,4.35,0,0,0-.32-.5,13.44,13.44,0,0,0-4.26-3,15.75,15.75,0,0,0-5.09-1.43,22.81,22.81,0,0,0-5.85,1.32,29,29,0,0,0-6.27,3.16l-.24.21S212.54,210.52,216.09,210.56Z" style="fill:#fff"></path><path d="M214.18,217.41c-3.07,0-11.78,7.45-11.78,7.45a13.69,13.69,0,0,0,3,2.27,17,17,0,0,0,5.66,1.44,24.53,24.53,0,0,0,6.15-1.31,29.79,29.79,0,0,0,4.54-2.18S217.25,217.45,214.18,217.41Z" style="fill:#fff"></path><path d="M231.81,207.37a16.79,16.79,0,0,0-1.24-4.07S220,210.64,219,214.09c-.87,3.09,4.93,9.82,4.93,9.82l0,0a34.59,34.59,0,0,0,4.65-5,22.4,22.4,0,0,0,3-5.73A18.35,18.35,0,0,0,231.81,207.37Z" style="fill:#fff"></path></g><g style="opacity:0.5"><path d="M202.74,215.18c-1.21.25-1.68-.2-1.65-.9s.55-1.35,1.76-1.61,2.16.11,2.13.8S204,214.93,202.74,215.18Z" style="fill:#fff"></path><path d="M203.64,219.55c-1.12.52-1.71.24-1.87-.36s.18-1.29,1.3-1.81,2.16-.45,2.32.15S204.77,219,203.64,219.55Z" style="fill:#fff"></path><path d="M204.29,209.71c-.84-.25-.95-.79-.65-1.34a1.37,1.37,0,0,1,1.72-.66c.85.24,1.29.89,1,1.44A1.83,1.83,0,0,1,204.29,209.71Z" style="fill:#fff"></path><path d="M221.12,203.48c.67-.82,1.29-.94,1.73-.67s.51.82-.15,1.65-1.56,1.27-2,1S220.46,204.31,221.12,203.48Z" style="fill:#fff"></path><path d="M212.94,204.26a1.37,1.37,0,0,1,.88-1.61c.59-.23,1.12-.05,1.26.81a1.81,1.81,0,0,1-.83,2C213.66,205.64,213.08,205.12,212.94,204.26Z" style="fill:#fff"></path><path d="M216,207.14c.34-1,1-1.46,1.63-1.43s1,.49.68,1.54-1.12,1.87-1.75,1.84S215.7,208.19,216,207.14Z" style="fill:#fff"></path><path d="M207.5,216c-1,.22-1.38-.14-1.37-.7s.42-1.11,1.41-1.34,1.78.05,1.76.61S208.48,215.75,207.5,216Z" style="fill:#fff"></path><path d="M211.72,225.89c-.47.92-1.1,1.18-1.63,1.05s-.76-.62-.3-1.54,1.28-1.56,1.81-1.43S212.18,225,211.72,225.89Z" style="fill:#fff"></path><path d="M207.61,224.58c-.69.82-1.32.94-1.75.65s-.51-.84.18-1.67,1.59-1.27,2-1S208.29,223.75,207.61,224.58Z" style="fill:#fff"></path><path d="M212.47,221.74c-.74.79-1.36.86-1.76.54s-.43-.9.3-1.69,1.66-1.18,2.06-.86S213.2,221,212.47,221.74Z" style="fill:#fff"></path><path d="M227.42,208.93c1-.32,1.42,0,1.48.53s-.31,1.12-1.29,1.44-1.82.15-1.88-.4S226.43,209.25,227.42,208.93Z" style="fill:#fff"></path><path d="M222.87,213.08c.95,0,1.22.46,1.07,1a1.53,1.53,0,0,1-1.63,1.06c-.95,0-1.6-.46-1.45-1S221.91,213.09,222.87,213.08Z" style="fill:#fff"></path><path d="M227.84,214.13c1,0,1.22.46,1.07,1a1.52,1.52,0,0,1-1.62,1.06c-1,0-1.61-.47-1.45-1S226.89,214.13,227.84,214.13Z" style="fill:#fff"></path><path d="M225.81,217.8a1,1,0,0,1,.18,1.59,1.22,1.22,0,0,1-1.75.2,1.23,1.23,0,0,1-.45-1.79A1.56,1.56,0,0,1,225.81,217.8Z" style="fill:#fff"></path><path d="M217.51,221.68a1.23,1.23,0,0,1-.52,1.69,1,1,0,0,1-1.52-.45,1.59,1.59,0,0,1,.37-2C216.4,220.57,217.15,220.91,217.51,221.68Z" style="fill:#fff"></path><path d="M218.75,200.73a1.53,1.53,0,0,1,1.33-1.41c.59,0,1,.31.82,1.25s-.81,1.75-1.41,1.79S218.57,201.68,218.75,200.73Z" style="fill:#fff"></path></g></g><g id="freepik--Pepper--inject-211"><path d="M128.75,199.88a17.81,17.81,0,0,0-17.84-.61,18,18,0,0,0-6.8,6,18,18,0,0,0-8.82,2.1A17.57,17.57,0,0,0,86,219a18.67,18.67,0,0,0-5.24,1.82C70.8,226,66.92,238.33,76.09,256S104,290.12,114,284.94a8.63,8.63,0,0,0,2.79-2.33c6.26,4.4,12.39,6.33,16.81,4.05,2.79-1.45,4.61-4.45,5.56-8.39,3.78,1.49,7.26,1.74,10.06.29,3.79-2,5.76-6.74,6.26-12.88a9.27,9.27,0,0,0,4.83-.94c10-5.17,7.41-29.94-1.76-47.64C149.87,200.37,138.41,196,128.75,199.88Z" style="fill:#0969DA"></path><path d="M96.34,252.17c-8.59-16.56-6.28-27.39,1.41-31.38a12,12,0,0,1,5.51-1.38c-4.44-2.44-8.76-2.49-12.5-.55-7.7,4-10,14.82-1.42,31.39,7.93,15.29,22.35,30.12,30.58,29.17C112,275,102.31,263.71,96.34,252.17Z" style="opacity:0.1"></path><path d="M143.13,230.41c-9.17-17.7-19.62-22.59-27.31-18.6a11.36,11.36,0,0,0-4.27,3.79c.43-5.3,2.83-9,6.57-10.92,7.7-4,18.14.9,27.31,18.6,8.47,16.34,12.88,37.88,7.45,44.23C153.59,258,149.51,242.73,143.13,230.41Z" style="opacity:0.1"></path><path d="M118.71,254.59c8.47,14.7,15.79,19.47,20,17a4.83,4.83,0,0,0,2.11-2.59c.53,4.12-.41,6.79-2.47,8-4.24,2.44-11.57-2.32-20-17-7.82-13.58-13.88-30.87-11.43-35.37C107.91,232,112.81,244.35,118.71,254.59Z" style="opacity:0.1"></path><path d="M130.36,222.16c2.64,3.44,3.09,7.53,1,9.13s-5.93.11-8.57-3.33-3.09-7.54-1-9.14S127.72,218.71,130.36,222.16Z" style="fill:#fff;opacity:0.30000000000000004"></path><path d="M136.79,236.69c.5,2.11-.13,4.07-1.42,4.37s-2.72-1.17-3.22-3.28.14-4.07,1.42-4.37S136.3,234.57,136.79,236.69Z" style="fill:#fff;opacity:0.2"></path><path d="M94.69,214.59s3.21-3.93,6.94,1.67c0,0,4.19-3.68,7.24.76,0,0,6.38-11,10.26-8.7a7.2,7.2,0,0,1,4.76-6.63s-10.63-2.63-16.45,6C107.44,207.66,94.92,205.91,94.69,214.59Z" style="fill:#0969DA"></path><path d="M94.69,214.59s3.21-3.93,6.94,1.67c0,0,4.19-3.68,7.24.76,0,0,6.38-11,10.26-8.7a7.2,7.2,0,0,1,4.76-6.63s-10.63-2.63-16.45,6C107.44,207.66,94.92,205.91,94.69,214.59Z" style="opacity:0.30000000000000004"></path><path d="M110.77,209.81a4,4,0,0,1-6.43-3.28c.1-6.28,1.13-17,6.26-25.41,7.74-12.66,17-10.7,17-10.7s6.42,9.47-2.8,13.11c0,0-8.81-8.32-11.24,22.26a4,4,0,0,1-1.11,2.49A13,13,0,0,1,110.77,209.81Z" style="fill:#0969DA"></path><path d="M110.77,209.81a4,4,0,0,1-6.43-3.28c.1-6.28,1.13-17,6.26-25.41,7.74-12.66,17-10.7,17-10.7s6.42,9.47-2.8,13.11c0,0-8.81-8.32-11.24,22.26a4,4,0,0,1-1.11,2.49A13,13,0,0,1,110.77,209.81Z" style="opacity:0.2"></path><path d="M124.84,183.53c9.22-3.64,2.8-13.11,2.8-13.11C121,174.25,124.84,183.53,124.84,183.53Z" style="opacity:0.30000000000000004"></path></g></svg>
